#N canvas 126 84 244 240 10;
#X declare -path ./objects;
#N canvas 548 203 824 659 fumtunt 0;
#X text 440 308 175 220 265 345 550 700 880 1000 1100 1400 1750 2300
2950 3500 4300;
#X obj 64 116 throw~ \$0-outh;
#X obj 217 115 throw~ \$0-outh;
#X obj 524 114 throw~ \$0-outh;
#X obj 676 114 throw~ \$0-outh;
#X obj 64 184 throw~ \$0-outh;
#X obj 217 182 throw~ \$0-outh;
#X obj 372 181 throw~ \$0-outh;
#X obj 525 181 throw~ \$0-outh;
#X obj 677 181 throw~ \$0-outh;
#X obj 65 251 throw~ \$0-outh;
#X obj 217 251 throw~ \$0-outh;
#X obj 372 250 throw~ \$0-outh;
#X obj 525 250 throw~ \$0-outh;
#X obj 677 250 throw~ \$0-outh;
#X obj 372 115 throw~ \$0-outh;
#X obj 682 437 throw~ \$0-outhr;
#X obj 530 437 throw~ \$0-outhr;
#X obj 378 438 throw~ \$0-outhr;
#X obj 223 438 throw~ \$0-outhr;
#X obj 70 439 throw~ \$0-outhr;
#X obj 70 507 throw~ \$0-outhr;
#X obj 223 505 throw~ \$0-outhr;
#X obj 378 504 throw~ \$0-outhr;
#X obj 531 504 throw~ \$0-outhr;
#X obj 683 504 throw~ \$0-outhr;
#X obj 71 574 throw~ \$0-outhr;
#X obj 223 574 throw~ \$0-outhr;
#X obj 378 573 throw~ \$0-outhr;
#X obj 531 573 throw~ \$0-outhr;
#X obj 683 573 throw~ \$0-outhr;
#X obj 22 36 delread~ \$0-derrty 2000;
#X obj 630 592 delwrite~ \$0-derrty 2000;
#X obj 64 71 clip~ -0.3 0.3;
#X obj 70 396 clip~ -0.3 0.3;
#X text 460 28 FROGS>?;
#X obj 217 230 funmunt 2300;
#X obj 223 417 funmunt 55;
#X obj 524 93 funmunt 345;
#X obj 683 483 funmunt 1400;
#X obj 65 230 funmunt 1750;
#X obj 372 229 funmunt 2950;
#X obj 64 163 funmunt 700;
#X obj 378 417 funmunt 265;
#X obj 64 95 funmunt 175;
#X obj 676 93 funmunt 550;
#X obj 217 161 funmunt 880;
#X obj 372 160 funmunt 1000;
#X obj 525 160 funmunt 1100;
#X obj 677 160 funmunt 1400;
#X obj 525 229 funmunt 3500;
#X obj 677 229 funmunt 4300;
#X obj 372 94 funmunt 265;
#X obj 378 552 funmunt 2950;
#X obj 71 553 funmunt 1750;
#X obj 70 418 funmunt 175;
#X obj 530 416 funmunt 345;
#X obj 682 416 funmunt 550;
#X obj 70 486 funmunt 700;
#X obj 223 484 funmunt 880;
#X obj 378 483 funmunt 1000;
#X obj 531 483 funmunt 1100;
#X obj 223 553 funmunt 2300;
#X obj 531 552 funmunt 3500;
#X obj 683 552 funmunt 4300;
#X obj 217 94 funmunt 110;
#X connect 31 0 33 0;
#X connect 31 0 34 0;
#X connect 33 0 44 0;
#X connect 34 0 55 0;
#X connect 36 0 11 0;
#X connect 36 0 41 0;
#X connect 37 0 19 0;
#X connect 37 0 43 0;
#X connect 38 0 3 0;
#X connect 38 0 45 0;
#X connect 39 0 25 0;
#X connect 39 0 54 0;
#X connect 40 0 10 0;
#X connect 40 0 36 0;
#X connect 41 0 12 0;
#X connect 41 0 50 0;
#X connect 42 0 5 0;
#X connect 42 0 46 0;
#X connect 43 0 18 0;
#X connect 43 0 56 0;
#X connect 44 0 1 0;
#X connect 44 0 65 0;
#X connect 45 0 4 0;
#X connect 45 0 42 0;
#X connect 46 0 6 0;
#X connect 46 0 47 0;
#X connect 47 0 7 0;
#X connect 47 0 48 0;
#X connect 48 0 8 0;
#X connect 48 0 49 0;
#X connect 49 0 9 0;
#X connect 49 0 40 0;
#X connect 50 0 13 0;
#X connect 50 0 51 0;
#X connect 51 0 14 0;
#X connect 52 0 15 0;
#X connect 52 0 38 0;
#X connect 53 0 28 0;
#X connect 53 0 63 0;
#X connect 54 0 26 0;
#X connect 54 0 62 0;
#X connect 55 0 20 0;
#X connect 55 0 37 0;
#X connect 56 0 17 0;
#X connect 56 0 57 0;
#X connect 57 0 16 0;
#X connect 57 0 58 0;
#X connect 58 0 21 0;
#X connect 58 0 59 0;
#X connect 59 0 22 0;
#X connect 59 0 60 0;
#X connect 60 0 23 0;
#X connect 60 0 61 0;
#X connect 61 0 24 0;
#X connect 61 0 39 0;
#X connect 62 0 27 0;
#X connect 62 0 53 0;
#X connect 63 0 29 0;
#X connect 63 0 64 0;
#X connect 64 0 30 0;
#X connect 64 0 32 0;
#X connect 65 0 2 0;
#X connect 65 0 52 0;
#X restore 19 13 pd fumtunt;
#N canvas 0 50 348 494 froggin 0;
#X obj 15 163 catch~ \$0-outh;
#X obj 107 163 catch~ \$0-outhr;
#X obj 62 207 hip~ 15000;
#X obj 132 206 rev2~ 79 79 3000 15;
#X obj 132 184 lop~ 150;
#X obj 177 140 * 1000;
#X obj 177 119 snapshot~;
#X obj 201 93 bang~;
#X obj 177 72 osc~ 0.05;
#X obj 206 163 > 0.9;
#X obj 206 183 sel 1;
#X obj 177 50 * 0.001;
#X obj 177 28 random 1000;
#X obj 177 8 bng 15 250 50 0 empty empty empty 17 7 0 10 -262144 -1
-1;
#X obj 69 241 thru~;
#X obj 15 266 clip~ -0.3 0.3;
#X obj 107 266 clip~ -0.3 0.3;
#X obj 17 317 clip~ -0.3 0.3;
#X obj 109 317 clip~ -0.3 0.3;
#X obj 76 451 outlet~;
#X obj 125 451 outlet~;
#X obj 117 376 thru~;
#X text 278 51 frog cars?;
#X obj 77 409 *~ 0.5;
#X obj 139 407 *~ 0.5;
#X obj 108 288 funmunt 880;
#X obj 16 288 funmunt 2950;
#X obj 18 339 funmunt 3500;
#X obj 110 339 funmunt 1100;
#X connect 0 0 2 0;
#X connect 0 0 4 0;
#X connect 0 0 14 0;
#X connect 1 0 2 0;
#X connect 1 0 4 0;
#X connect 1 0 14 1;
#X connect 2 0 14 0;
#X connect 2 0 14 1;
#X connect 3 0 14 0;
#X connect 3 0 16 0;
#X connect 3 1 14 1;
#X connect 3 2 14 0;
#X connect 3 2 15 0;
#X connect 3 3 14 1;
#X connect 4 0 3 0;
#X connect 5 0 4 1;
#X connect 6 0 5 0;
#X connect 6 0 9 0;
#X connect 7 0 6 0;
#X connect 8 0 6 0;
#X connect 9 0 10 0;
#X connect 10 0 13 0;
#X connect 11 0 8 0;
#X connect 12 0 11 0;
#X connect 13 0 12 0;
#X connect 14 0 16 0;
#X connect 14 0 21 0;
#X connect 14 1 15 0;
#X connect 14 1 21 1;
#X connect 15 0 26 0;
#X connect 16 0 25 0;
#X connect 17 0 27 0;
#X connect 18 0 28 0;
#X connect 21 0 23 0;
#X connect 21 1 24 0;
#X connect 23 0 19 0;
#X connect 24 0 20 0;
#X connect 25 0 17 0;
#X connect 25 0 21 0;
#X connect 26 0 18 0;
#X connect 26 0 21 1;
#X connect 27 0 21 1;
#X connect 28 0 21 0;
#X restore 19 33 pd froggin;
#N canvas 35 66 592 433 Hann-window 0;
#N canvas 0 50 450 300 (subpatch) 0;
#X array \$0-hann 512 float 0;
#X coords 0 1 511 0 200 120 1;
#X restore 293 249 graph;
#X msg 171 263 0;
#X obj 65 312 osc~;
#X obj 65 264 samplerate~;
#X obj 65 335 *~ -0.5;
#X obj 65 358 +~ 0.5;
#X obj 57 383 tabwrite~ \$0-hann;
#X text 279 241 1;
#X text 272 359 0;
#X text 288 372 0;
#X obj 65 288 / 512;
#X obj 57 241 bng 15 250 50 0 empty empty empty 0 -6 0 8 -262144 -1
-1;
#X text 336 221 Hann window;
#X text 113 310 period 512;
#X text 90 215 recalculate Hann;
#X text 125 230 window table;
#X obj 57 146 loadbang;
#X msg 79 179 \; pd dsp 1;
#X text 40 27 The Hann window is now recomputed on 'loadbang' to make
the file smaller (it doesn't have to be saved with the array.);
#X text 474 375 511;
#X connect 1 0 2 1;
#X connect 2 0 4 0;
#X connect 3 0 10 0;
#X connect 4 0 5 0;
#X connect 5 0 6 0;
#X connect 10 0 2 0;
#X connect 11 0 3 0;
#X connect 11 0 1 0;
#X connect 11 0 6 0;
#X connect 16 0 11 0;
#X connect 16 0 17 0;
#X restore 143 34 pd Hann-window;
#N canvas 684 203 631 441 fft 0;
#X obj 37 13 inlet~;
#X obj 313 19 inlet~;
#X obj 55 392 outlet~;
#X obj 436 408 outlet~;
#X msg 220 209 1;
#X obj 229 174 loadbang;
#X obj 53 55 *~;
#X obj 74 31 tabreceive~ \$0-hann;
#X obj 327 69 *~;
#X obj 348 45 tabreceive~ \$0-hann;
#X obj 69 359 *~;
#X obj 118 346 tabreceive~ \$0-hann;
#X obj 446 367 *~;
#X obj 499 357 tabreceive~ \$0-hann;
#X obj 97 312 *~;
#X obj 64 313 *~;
#X obj 65 79 rfft~;
#X obj 148 128 *~;
#X obj 64 336 rifft~;
#X obj 114 128 *~;
#X obj 114 151 +~;
#X obj 114 176 +~ 1e-20;
#X obj 417 328 *~;
#X obj 384 329 *~;
#X obj 385 95 rfft~;
#X obj 468 144 *~;
#X obj 384 352 rifft~;
#X obj 434 144 *~;
#X obj 434 167 +~;
#X obj 434 192 +~ 1e-20;
#X obj 433 230 rsqrt~;
#X obj 113 214 rsqrt~;
#X obj 220 230 block~ 512 4;
#X obj 114 281 clip~ 0 0.08;
#X obj 434 297 clip~ 0 0.08;
#X connect 0 0 6 0;
#X connect 1 0 8 0;
#X connect 4 0 32 0;
#X connect 5 0 4 0;
#X connect 6 0 16 0;
#X connect 7 0 6 1;
#X connect 8 0 24 0;
#X connect 9 0 8 1;
#X connect 10 0 2 0;
#X connect 11 0 10 1;
#X connect 12 0 3 0;
#X connect 13 0 12 1;
#X connect 14 0 18 1;
#X connect 15 0 18 0;
#X connect 16 0 19 0;
#X connect 16 0 19 1;
#X connect 16 0 14 0;
#X connect 16 1 17 0;
#X connect 16 1 17 1;
#X connect 16 1 15 0;
#X connect 17 0 20 1;
#X connect 18 0 10 0;
#X connect 19 0 20 0;
#X connect 20 0 21 0;
#X connect 21 0 31 0;
#X connect 22 0 26 1;
#X connect 23 0 26 0;
#X connect 24 0 27 0;
#X connect 24 0 27 1;
#X connect 24 0 23 0;
#X connect 24 1 25 0;
#X connect 24 1 25 1;
#X connect 24 1 22 0;
#X connect 25 0 28 1;
#X connect 26 0 12 0;
#X connect 27 0 28 0;
#X connect 28 0 29 0;
#X connect 29 0 30 0;
#X connect 30 0 34 0;
#X connect 31 0 33 0;
#X connect 33 0 15 1;
#X connect 33 0 14 1;
#X connect 34 0 23 1;
#X connect 34 0 22 1;
#X restore 19 91 pd fft;
#N canvas 387 99 718 563 echossss 0;
#X obj 177 50 inlet~;
#X obj 191 497 outlet~;
#X obj 475 492 outlet~;
#X obj 137 186 abs~;
#X obj 177 130 delwrite~ \$0-speed1 10000;
#X obj 191 248 vd~ \$0-speed1;
#X obj 288 195 *~ 0.666;
#X obj 137 209 *~ 6666;
#X obj 137 231 +~ 666;
#X obj 137 164 osc~ 0.0015;
#X obj 106 326 abs~;
#X obj 320 323 *~ 0.666;
#X obj 106 351 *~ 6666;
#X obj 106 375 +~ 666;
#X obj 217 297 delwrite~ \$0-speed3 10000;
#X obj 106 405 vd~ \$0-speed3;
#X obj 106 302 osc~ 0.004;
#X obj 191 446 *~ 0.25;
#X obj 421 183 abs~;
#X obj 572 192 *~ 0.666;
#X obj 421 206 *~ 6666;
#X obj 421 228 +~ 666;
#X obj 421 161 osc~ 0.0015;
#X obj 390 323 abs~;
#X obj 604 320 *~ 0.666;
#X obj 390 348 *~ 6666;
#X obj 390 372 +~ 666;
#X obj 390 299 osc~ 0.004;
#X obj 475 443 *~ 0.25;
#X obj 461 127 delwrite~ \$0-speed2 10000;
#X obj 475 245 vd~ \$0-speed2;
#X obj 501 294 delwrite~ \$0-speed4 10000;
#X obj 390 402 vd~ \$0-speed4;
#X obj 461 50 inlet~;
#X connect 0 0 4 0;
#X connect 3 0 7 0;
#X connect 5 0 6 0;
#X connect 5 0 14 0;
#X connect 5 0 17 0;
#X connect 6 0 4 0;
#X connect 7 0 8 0;
#X connect 8 0 5 0;
#X connect 9 0 3 0;
#X connect 10 0 12 0;
#X connect 11 0 14 0;
#X connect 12 0 13 0;
#X connect 13 0 15 0;
#X connect 15 0 11 0;
#X connect 15 0 17 0;
#X connect 16 0 10 0;
#X connect 17 0 1 0;
#X connect 18 0 20 0;
#X connect 19 0 29 0;
#X connect 20 0 21 0;
#X connect 21 0 30 0;
#X connect 22 0 18 0;
#X connect 23 0 25 0;
#X connect 24 0 31 0;
#X connect 25 0 26 0;
#X connect 26 0 32 0;
#X connect 27 0 23 0;
#X connect 28 0 2 0;
#X connect 30 0 19 0;
#X connect 30 0 28 0;
#X connect 30 0 31 0;
#X connect 32 0 24 0;
#X connect 32 0 28 0;
#X connect 33 0 29 0;
#X restore 19 58 pd echossss;
#X obj 89 13 declare -path ./objects;
#X obj 18 205 dac~;
#N canvas 816 289 286 548 drone 0;
#X obj 23 157 phasor~ 24;
#X obj 161 158 phasor~ 65;
#X obj 92 157 phasor~ 49;
#X obj 24 232 rev2~ 90 90 3000 5;
#X obj 23 210 lop~ 200;
#X obj 24 316 *~;
#X obj 37 296 osc~ 0.01;
#X obj 42 338 *~;
#X obj 55 318 osc~ 0.02;
#X obj 58 361 *~;
#X obj 76 383 *~;
#X obj 71 341 osc~ 0.03;
#X obj 89 363 osc~ 0.04;
#X obj 142 253 * 0.001;
#X obj 142 232 random 1000;
#X obj 153 295 * 0.001;
#X obj 153 274 random 1000;
#X obj 168 339 * 0.001;
#X obj 168 318 random 1000;
#X obj 179 381 * 0.001;
#X obj 179 360 random 1000;
#X obj 179 197 loadbang;
#X obj 24 456 outlet~;
#X obj 79 457 outlet~;
#X obj 110 397 *~ 0.125;
#X obj 22 76 osc~ 24;
#X obj 91 76 osc~ 49;
#X obj 160 77 osc~ 65;
#X obj 22 97 cos~;
#X obj 160 98 cos~;
#X obj 91 97 cos~;
#X obj 160 127 *~ 0.5;
#X obj 24 429 *~ 0.5;
#X obj 79 430 *~ 0.5;
#X connect 0 0 4 0;
#X connect 1 0 4 0;
#X connect 2 0 4 0;
#X connect 3 0 5 0;
#X connect 3 1 7 0;
#X connect 3 2 9 0;
#X connect 3 3 10 0;
#X connect 4 0 3 0;
#X connect 4 0 24 0;
#X connect 5 0 32 0;
#X connect 6 0 5 1;
#X connect 7 0 33 0;
#X connect 8 0 7 1;
#X connect 9 0 33 0;
#X connect 10 0 32 0;
#X connect 11 0 9 1;
#X connect 12 0 10 1;
#X connect 13 0 6 1;
#X connect 14 0 13 0;
#X connect 15 0 8 1;
#X connect 16 0 15 0;
#X connect 17 0 11 1;
#X connect 18 0 17 0;
#X connect 19 0 12 1;
#X connect 20 0 19 0;
#X connect 21 0 14 0;
#X connect 21 0 16 0;
#X connect 21 0 18 0;
#X connect 21 0 20 0;
#X connect 24 0 32 0;
#X connect 24 0 33 0;
#X connect 25 0 28 0;
#X connect 26 0 30 0;
#X connect 27 0 29 0;
#X connect 28 0 31 0;
#X connect 29 0 31 0;
#X connect 30 0 31 0;
#X connect 31 0 3 0;
#X connect 32 0 22 0;
#X connect 33 0 23 0;
#X restore 71 91 pd drone;
#X obj 18 176 expr~ tanh($v1);
#X obj 116 176 expr~ tanh($v1);
#X obj 19 153 *~ 0.6;
#X obj 116 151 *~ 0.6;
#X connect 1 0 4 0;
#X connect 1 1 4 1;
#X connect 3 0 10 0;
#X connect 3 1 11 0;
#X connect 4 0 3 0;
#X connect 4 1 3 1;
#X connect 7 0 10 0;
#X connect 7 1 11 0;
#X connect 8 0 6 0;
#X connect 9 0 6 1;
#X connect 10 0 8 0;
#X connect 11 0 9 0;
