#N canvas 749 202 512 478 10;
#X obj 338 40 s \$0-mstime;
#X obj 82 385 outlet~;
#X obj 190 410 outlet~;
#X obj 8 16 inlet~;
#X obj 60 16 inlet~;
#X obj 213 182 * 2;
#X obj 68 126 vddelay;
#X obj 232 133 vddelay;
#X obj 161 238 vddelay;
#X obj 293 211 vddelay;
#X floatatom 298 43 5 0 0 0 - - -, f 5;
#X obj 304 18 inlet;
#X obj 264 262 * 2;
#X obj 188 285 vddelay;
#X obj 344 291 vddelay;
#X obj 328 323 *~ 0.5;
#X obj 189 313 cos~;
#X obj 56 203 cos~;
#X obj 95 336 cos~;
#X obj 210 350 phasor~;
#X obj 208 377 hip~ 300;
#X obj 160 64 r \$0-mstime;
#X obj 166 92 * 2;
#X connect 3 0 6 0;
#X connect 4 0 7 0;
#X connect 5 0 8 1;
#X connect 5 0 12 0;
#X connect 5 0 9 1;
#X connect 6 0 8 0;
#X connect 6 0 17 0;
#X connect 7 0 9 0;
#X connect 8 0 13 0;
#X connect 8 0 18 0;
#X connect 9 0 14 0;
#X connect 9 0 19 0;
#X connect 11 0 0 0;
#X connect 11 0 10 0;
#X connect 12 0 13 1;
#X connect 12 0 14 1;
#X connect 13 0 16 0;
#X connect 14 0 1 0;
#X connect 14 0 15 0;
#X connect 15 0 6 0;
#X connect 16 0 2 0;
#X connect 17 0 2 0;
#X connect 18 0 1 0;
#X connect 19 0 20 0;
#X connect 20 0 2 0;
#X connect 21 0 22 0;
#X connect 22 0 6 1;
#X connect 22 0 7 1;
#X connect 22 0 5 0;
