#N canvas 676 77 450 300 10;
#X obj 48 192 sig~;
#X obj 48 214 vd~ \$0-cassandrar 5;
#X obj 48 257 outlet~;
#X obj 42 11 inlet~;
#X obj 226 9 inlet;
#X obj 83 191 delwrite~ \$0-cassandrar 1000;
#X connect 0 0 1 0;
#X connect 1 0 2 0;
#X connect 3 0 5 0;
#X connect 4 0 0 0;
