#N canvas 271 78 261 352 10;
#X declare -path ./objects;
#X obj 17 140 catch~ \$0-whatysl;
#X obj 126 140 catch~ \$0-whatysr;
#X obj 17 56 metro 250;
#X obj 17 37 tgl 15 0 empty empty empty 17 7 0 10 -262144 -1 -1 1 1
;
#X obj 17 78 s \$0-baeng;
#X obj 17 14 loadbang;
#X floatatom 87 58 10 0 0 0 - - -, f 10;
#N canvas 672 186 339 407 workit2 0;
#X obj 67 262 outlet;
#X obj 66 81 metro 20000;
#X obj 154 15 random 10000;
#X obj 154 35 * 2;
#X obj 154 54 + 1000;
#X obj 42 63 bng 15 250 50 0 empty empty empty 17 7 0 10 -262144 -1
-1;
#X obj 67 238 line;
#X obj 67 212 pack 0 1000;
#X obj 151 181 random 2000;
#X obj 67 154 * 0.0625;
#X obj 104 184 * 3;
#X obj 66 19 inlet;
#X obj 67 185 + 100;
#X obj 116 324 * 0.0002;
#X obj 116 344 * 80;
#X obj 116 365 s \$0-revtimer;
#X obj 116 280 - 100;
#X obj 116 301 clip 10 5000;
#X obj 67 103 random 1000;
#X obj 67 127 moses 800;
#X connect 1 0 2 0;
#X connect 1 0 18 0;
#X connect 2 0 3 0;
#X connect 3 0 4 0;
#X connect 4 0 1 1;
#X connect 5 0 1 0;
#X connect 6 0 0 0;
#X connect 6 0 16 0;
#X connect 7 0 6 0;
#X connect 8 0 6 0;
#X connect 8 0 7 0;
#X connect 8 0 7 1;
#X connect 9 0 12 0;
#X connect 10 0 7 1;
#X connect 11 0 1 0;
#X connect 11 0 8 0;
#X connect 12 0 7 0;
#X connect 12 0 10 0;
#X connect 13 0 14 0;
#X connect 14 0 15 0;
#X connect 16 0 17 0;
#X connect 17 0 13 0;
#X connect 18 0 19 0;
#X connect 19 0 9 0;
#X connect 19 1 12 0;
#X restore 68 35 pd workit2;
#N canvas 48 78 503 577 revvsvvs 0;
#X obj 28 -77 inlet~;
#X obj 41 -11 rev1~;
#X obj 108 -10 rev1~;
#X obj 95 -75 inlet~;
#X obj 32 443 outlet~;
#X obj 123 441 outlet~;
#X obj 151 -53 r \$0-revtimer;
#X floatatom 167 -29 5 0 0 0 - - -, f 5;
#X obj 167 11 * 0.01;
#X obj 110 32 *~;
#X obj 43 27 *~;
#X floatatom 167 33 5 0 0 0 - - -, f 5;
#X obj 167 -10 + 20;
#X obj 274 233 r \$0-baeng;
#X obj 238 104 r \$0-twerk;
#X obj 248 361 delwrite~ \$0-canofsam 5000;
#X obj 238 146 vd~ \$0-canofsam 5000;
#X obj 238 125 sig~;
#X obj 238 170 lop~ 500;
#X obj 248 197 *~ 0.77;
#X obj 259 336 *~;
#X obj 274 254 random 1000;
#X obj 274 315 vline~;
#X obj 274 274 * 0.001;
#X obj 274 294 pack 0 1000;
#X obj 97 312 r \$0-baeng;
#X obj 82 415 *~;
#X obj 97 333 random 1000;
#X obj 97 394 vline~;
#X obj 97 353 * 0.001;
#X obj 97 373 pack 0 1000;
#X obj 82 236 clip~ -0.08 0.08;
#X connect 0 0 1 0;
#X connect 0 0 4 0;
#X connect 1 0 10 0;
#X connect 1 0 31 0;
#X connect 2 0 9 0;
#X connect 2 0 31 0;
#X connect 3 0 2 0;
#X connect 3 0 5 0;
#X connect 6 0 2 1;
#X connect 6 0 1 1;
#X connect 6 0 7 0;
#X connect 7 0 12 0;
#X connect 8 0 9 1;
#X connect 8 0 10 1;
#X connect 8 0 11 0;
#X connect 9 0 5 0;
#X connect 9 0 20 0;
#X connect 10 0 4 0;
#X connect 10 0 20 0;
#X connect 12 0 8 0;
#X connect 13 0 21 0;
#X connect 14 0 17 0;
#X connect 16 0 18 0;
#X connect 17 0 16 0;
#X connect 18 0 5 0;
#X connect 18 0 4 0;
#X connect 18 0 19 0;
#X connect 18 0 31 0;
#X connect 19 0 15 0;
#X connect 20 0 15 0;
#X connect 21 0 23 0;
#X connect 22 0 20 1;
#X connect 23 0 24 0;
#X connect 24 0 22 0;
#X connect 25 0 27 0;
#X connect 26 0 4 0;
#X connect 26 0 5 0;
#X connect 27 0 29 0;
#X connect 28 0 26 1;
#X connect 29 0 30 0;
#X connect 30 0 28 0;
#X connect 31 0 26 0;
#X restore 63 235 pd revvsvvs;
#X obj 87 78 s \$0-twerk;
#X obj 63 318 dac~;
#X obj 91 107 declare -path ./objects;
#N canvas 415 309 464 155 mastering 0;
#X obj 12 66 expr~ tanh($v1);
#X obj 330 70 expr~ tanh($v1);
#X obj 12 44 *~ 0.1;
#X obj 12 19 inlet~;
#X obj 330 24 inlet~;
#X obj 12 93 outlet~;
#X obj 330 94 outlet~;
#X obj 112 36 *~ 10;
#X obj 113 60 clip~ -0.05 0.05;
#X obj 331 48 *~ 0.1;
#X connect 0 0 5 0;
#X connect 1 0 6 0;
#X connect 2 0 0 0;
#X connect 3 0 2 0;
#X connect 3 0 7 0;
#X connect 4 0 9 0;
#X connect 7 0 8 0;
#X connect 8 0 2 0;
#X connect 9 0 1 0;
#X restore 63 283 pd mastering;
#N canvas 142 368 806 252 hatred 0;
#X obj 29 55 throw~ \$0-whatysl;
#X obj 93 70 throw~ \$0-whatysr;
#X obj 29 8 r \$0-baeng;
#X obj 103 12 r \$0-twerk;
#X obj 222 52 throw~ \$0-whatysl;
#X obj 286 67 throw~ \$0-whatysr;
#X obj 222 5 r \$0-baeng;
#X obj 296 9 r \$0-twerk;
#X obj 412 56 throw~ \$0-whatysl;
#X obj 476 71 throw~ \$0-whatysr;
#X obj 412 9 r \$0-baeng;
#X obj 486 13 r \$0-twerk;
#X obj 592 58 throw~ \$0-whatysl;
#X obj 656 73 throw~ \$0-whatysr;
#X obj 592 11 r \$0-baeng;
#X obj 666 15 r \$0-twerk;
#X obj 39 160 throw~ \$0-whatysl;
#X obj 103 175 throw~ \$0-whatysr;
#X obj 39 113 r \$0-baeng;
#X obj 113 117 r \$0-twerk;
#X obj 232 157 throw~ \$0-whatysl;
#X obj 296 172 throw~ \$0-whatysr;
#X obj 232 110 r \$0-baeng;
#X obj 306 114 r \$0-twerk;
#X obj 422 161 throw~ \$0-whatysl;
#X obj 486 176 throw~ \$0-whatysr;
#X obj 422 114 r \$0-baeng;
#X obj 496 118 r \$0-twerk;
#X obj 602 163 throw~ \$0-whatysl;
#X obj 666 178 throw~ \$0-whatysr;
#X obj 602 116 r \$0-baeng;
#X obj 676 120 r \$0-twerk;
#X obj 232 131 squaretteat;
#X obj 29 29 squaretteat;
#X obj 222 26 squaretteat;
#X obj 412 30 squaretteat;
#X obj 592 32 squaretteat;
#X obj 39 134 squaretteat;
#X obj 422 135 squaretteat;
#X obj 602 137 squaretteat;
#X connect 2 0 33 0;
#X connect 3 0 33 1;
#X connect 6 0 34 0;
#X connect 7 0 34 1;
#X connect 10 0 35 0;
#X connect 11 0 35 1;
#X connect 14 0 36 0;
#X connect 15 0 36 1;
#X connect 18 0 37 0;
#X connect 19 0 37 1;
#X connect 22 0 32 0;
#X connect 23 0 32 1;
#X connect 26 0 38 0;
#X connect 27 0 38 1;
#X connect 30 0 39 0;
#X connect 31 0 39 1;
#X connect 32 0 20 0;
#X connect 32 1 21 0;
#X connect 33 0 0 0;
#X connect 33 1 1 0;
#X connect 34 0 4 0;
#X connect 34 1 5 0;
#X connect 35 0 8 0;
#X connect 35 1 9 0;
#X connect 36 0 12 0;
#X connect 36 1 13 0;
#X connect 37 0 16 0;
#X connect 37 1 17 0;
#X connect 38 0 24 0;
#X connect 38 1 25 0;
#X connect 39 0 28 0;
#X connect 39 1 29 0;
#X restore 17 107 pd hatred;
#N canvas 35 66 592 433 Hann-window 0;
#N canvas 0 50 450 300 (subpatch) 0;
#X array \$0-hann 512 float 0;
#X coords 0 1 511 0 200 120 1;
#X restore 293 249 graph;
#X msg 171 263 0;
#X obj 65 312 osc~;
#X obj 65 264 samplerate~;
#X obj 65 335 *~ -0.5;
#X obj 65 358 +~ 0.5;
#X obj 57 383 tabwrite~ \$0-hann;
#X text 279 241 1;
#X text 272 359 0;
#X text 288 372 0;
#X obj 65 288 / 512;
#X obj 57 241 bng 15 250 50 0 empty empty empty 0 -6 0 8 -262144 -1
-1;
#X text 336 221 Hann window;
#X text 113 310 period 512;
#X text 90 215 recalculate Hann;
#X text 125 230 window table;
#X obj 57 146 loadbang;
#X msg 79 179 \; pd dsp 1;
#X text 40 27 The Hann window is now recomputed on 'loadbang' to make
the file smaller (it doesn't have to be saved with the array.);
#X text 474 375 511;
#X connect 1 0 2 1;
#X connect 2 0 4 0;
#X connect 3 0 10 0;
#X connect 4 0 5 0;
#X connect 5 0 6 0;
#X connect 10 0 2 0;
#X connect 11 0 3 0;
#X connect 11 0 1 0;
#X connect 11 0 6 0;
#X connect 16 0 11 0;
#X connect 16 0 17 0;
#X restore 124 258 pd Hann-window;
#N canvas 684 203 631 441 fft 0;
#X obj 37 13 inlet~;
#X obj 313 19 inlet~;
#X obj 55 392 outlet~;
#X obj 436 408 outlet~;
#X msg 220 209 1;
#X obj 220 187 loadbang;
#X obj 53 55 *~;
#X obj 74 31 tabreceive~ \$0-hann;
#X obj 327 69 *~;
#X obj 348 45 tabreceive~ \$0-hann;
#X obj 69 359 *~;
#X obj 118 346 tabreceive~ \$0-hann;
#X obj 446 367 *~;
#X obj 499 357 tabreceive~ \$0-hann;
#X obj 97 312 *~;
#X obj 64 313 *~;
#X obj 65 79 rfft~;
#X obj 148 128 *~;
#X obj 64 336 rifft~;
#X obj 114 128 *~;
#X obj 114 151 +~;
#X obj 114 176 +~ 1e-20;
#X obj 417 328 *~;
#X obj 384 329 *~;
#X obj 385 95 rfft~;
#X obj 468 144 *~;
#X obj 384 352 rifft~;
#X obj 434 144 *~;
#X obj 434 167 +~;
#X obj 434 192 +~ 1e-20;
#X obj 433 230 rsqrt~;
#X obj 113 214 rsqrt~;
#X obj 220 230 block~ 512 4;
#X obj 114 281 clip~ 0 0.003;
#X obj 434 297 clip~ 0 0.003;
#X connect 0 0 6 0;
#X connect 1 0 8 0;
#X connect 4 0 32 0;
#X connect 5 0 4 0;
#X connect 6 0 16 0;
#X connect 7 0 6 1;
#X connect 8 0 24 0;
#X connect 9 0 8 1;
#X connect 10 0 2 0;
#X connect 11 0 10 1;
#X connect 12 0 3 0;
#X connect 13 0 12 1;
#X connect 14 0 18 1;
#X connect 15 0 18 0;
#X connect 16 0 19 0;
#X connect 16 0 19 1;
#X connect 16 0 14 0;
#X connect 16 1 17 0;
#X connect 16 1 17 1;
#X connect 16 1 15 0;
#X connect 17 0 20 1;
#X connect 18 0 10 0;
#X connect 19 0 20 0;
#X connect 20 0 21 0;
#X connect 21 0 31 0;
#X connect 22 0 26 1;
#X connect 23 0 26 0;
#X connect 24 0 27 0;
#X connect 24 0 27 1;
#X connect 24 0 23 0;
#X connect 24 1 25 0;
#X connect 24 1 25 1;
#X connect 24 1 22 0;
#X connect 25 0 28 1;
#X connect 26 0 12 0;
#X connect 27 0 28 0;
#X connect 28 0 29 0;
#X connect 29 0 30 0;
#X connect 30 0 34 0;
#X connect 31 0 33 0;
#X connect 33 0 15 1;
#X connect 33 0 14 1;
#X connect 34 0 23 1;
#X connect 34 0 22 1;
#X restore 63 259 pd fft;
#N canvas 0 50 464 451 snarekick 0;
#X obj 171 134 sel 0;
#X obj 171 226 line~;
#X obj 171 248 *~;
#X obj 312 231 noise~;
#X msg 171 199 \$1 \, 0 100;
#X obj 171 154 random 100;
#X obj 64 141 sel 4;
#X obj 66 236 line~;
#X obj 66 164 random 100;
#X obj 51 258 *~;
#X obj 381 137 sel 0;
#X obj 381 229 line~;
#X obj 366 311 *~;
#X obj 381 157 random 100;
#X obj 381 178 * 0.01;
#X obj 169 418 outlet~;
#X obj 182 395 cos~;
#X obj 11 215 osc~ 90;
#X obj 66 185 * 0.01;
#X obj 171 175 * 0.008;
#X msg 66 209 \$1 \, 0 50;
#X msg 381 202 \$1 \, 0 20;
#X obj 171 41 inlet;
#X obj 171 108 random 8;
#X obj 381 111 random 2;
#X obj 170 269 delwrite~ \$0-comb 100;
#X obj 283 291 *~ 0.9;
#X obj 169 291 delread~ \$0-comb 5;
#X obj 258 154 random 100;
#X obj 258 175 * 0.008;
#X obj 185 314 sig~ 666;
#X obj 169 335 vcf~ 5;
#X obj 169 359 *~ 20;
#X connect 0 0 5 0;
#X connect 0 0 28 0;
#X connect 1 0 2 0;
#X connect 2 0 25 0;
#X connect 3 0 12 0;
#X connect 3 0 2 1;
#X connect 4 0 1 0;
#X connect 5 0 19 0;
#X connect 6 0 8 0;
#X connect 7 0 9 1;
#X connect 8 0 18 0;
#X connect 9 0 16 0;
#X connect 9 0 15 0;
#X connect 9 0 31 0;
#X connect 10 0 13 0;
#X connect 11 0 12 1;
#X connect 12 0 16 0;
#X connect 13 0 14 0;
#X connect 14 0 21 0;
#X connect 16 0 15 0;
#X connect 17 0 9 0;
#X connect 18 0 20 0;
#X connect 19 0 4 0;
#X connect 20 0 7 0;
#X connect 21 0 11 0;
#X connect 22 0 23 0;
#X connect 22 0 24 0;
#X connect 23 0 0 0;
#X connect 23 0 6 0;
#X connect 24 0 10 0;
#X connect 26 0 25 0;
#X connect 27 0 26 0;
#X connect 27 0 31 0;
#X connect 28 0 29 0;
#X connect 29 0 26 1;
#X connect 30 0 31 1;
#X connect 31 0 32 0;
#X connect 32 0 15 0;
#X restore 63 181 pd snarekick;
#X obj 63 204 lop~ 500;
#X obj 143 187 random 1000;
#X obj 63 160 r \$0-baeng;
#X connect 0 0 8 0;
#X connect 1 0 8 1;
#X connect 2 0 4 0;
#X connect 3 0 2 0;
#X connect 5 0 3 0;
#X connect 5 0 7 0;
#X connect 6 0 9 0;
#X connect 7 0 2 1;
#X connect 7 0 6 0;
#X connect 8 0 15 0;
#X connect 8 1 15 1;
#X connect 12 0 10 0;
#X connect 12 1 10 1;
#X connect 15 0 12 0;
#X connect 15 1 12 1;
#X connect 16 0 17 0;
#X connect 17 0 8 0;
#X connect 17 0 8 1;
#X connect 18 0 17 1;
#X connect 19 0 18 0;
#X connect 19 0 16 0;
