#N canvas 469 23 511 644 10;
#X declare -path ./samples;
#X obj 115 13 loadbang;
#N canvas 0 50 857 620 snippetwindow 0;
#X obj 151 201 t f f;
#X obj 40 463 * 0.001;
#X obj 248 247 t b;
#X obj 151 28 loadbang;
#X obj 151 173 + 1;
#X msg 248 266 1000;
#X obj 178 381 sin;
#X obj 178 404 clip 0 1;
#X obj 311 279 * -1;
#X obj 123 38 bng 15 250 50 0 empty empty empty 17 7 0 10 -262144 -1
-1;
#X obj 178 228 moses 200;
#X obj 248 228 moses 8600;
#X obj 311 251 - 8600;
#X obj 311 304 + 200;
#X obj 178 356 expr ($f1/1000)*7.65;
#X obj 550 204 t f f;
#X obj 439 466 * 0.001;
#X obj 550 31 loadbang;
#X obj 550 176 + 1;
#X obj 577 384 sin;
#X obj 577 407 clip 0 1;
#X obj 683 284 * -1;
#X obj 577 231 moses 200;
#X obj 683 309 + 8620;
#X obj 668 338 expr ($f1/1000)*0.1;
#X obj 541 307 expr ($f1/1000)*4.5;
#X obj 439 489 tabwrite \$0-grainshape2;
#X obj 40 486 tabwrite \$0-grainshape;
#X obj 340 92 table \$0-grainshape 8820;
#X obj 340 129 table \$0-grainshape2 8820;
#X obj 151 53 metro 5;
#X floatatom 211 105 0 0 0 0 - - -;
#X obj 211 80 + 1;
#X obj 154 81 float;
#X obj 237 118 sel 8820;
#X msg 237 140 0;
#X obj 495 50 bng 15 250 50 0 empty empty empty 17 7 0 10 -262144 -1
-1;
#X obj 523 65 metro 5;
#X floatatom 583 117 0 0 0 0 - - -;
#X obj 583 92 + 1;
#X obj 526 93 float;
#X obj 609 130 sel 8820;
#X msg 609 152 0;
#X msg 210 30 1;
#X connect 0 0 27 1;
#X connect 0 1 10 0;
#X connect 1 0 27 0;
#X connect 2 0 5 0;
#X connect 3 0 30 0;
#X connect 4 0 0 0;
#X connect 5 0 1 0;
#X connect 6 0 7 0;
#X connect 7 0 27 0;
#X connect 8 0 13 0;
#X connect 9 0 30 0;
#X connect 10 0 14 0;
#X connect 10 1 11 0;
#X connect 11 0 2 0;
#X connect 11 1 12 0;
#X connect 12 0 8 0;
#X connect 13 0 14 0;
#X connect 14 0 6 0;
#X connect 15 0 26 1;
#X connect 15 1 22 0;
#X connect 16 0 26 0;
#X connect 17 0 37 0;
#X connect 18 0 15 0;
#X connect 19 0 20 0;
#X connect 20 0 26 0;
#X connect 21 0 23 0;
#X connect 22 0 25 0;
#X connect 22 1 21 0;
#X connect 23 0 24 0;
#X connect 24 0 19 0;
#X connect 25 0 19 0;
#X connect 30 0 33 0;
#X connect 31 0 4 0;
#X connect 31 0 34 0;
#X connect 32 0 31 0;
#X connect 32 0 33 1;
#X connect 33 0 32 0;
#X connect 34 0 35 0;
#X connect 35 0 30 0;
#X connect 36 0 37 0;
#X connect 37 0 40 0;
#X connect 38 0 41 0;
#X connect 38 0 18 0;
#X connect 39 0 38 0;
#X connect 39 0 40 1;
#X connect 40 0 39 0;
#X connect 41 0 42 0;
#X connect 42 0 37 0;
#X connect 43 0 30 0;
#X restore 388 145 pd snippetwindow;
#N canvas 913 180 355 397 arraybank1 0;
#N canvas 0 50 450 300 (subpatch) 0;
#X array \$0-a1 8820 float 2;
#X coords 0 1 8819 -1 100 70 1;
#X restore 21 28 graph;
#N canvas 0 50 450 300 (subpatch) 0;
#X array \$0-a2 8820 float 2;
#X coords 0 1 8819 -1 100 70 1;
#X restore 20 116 graph;
#N canvas 0 50 450 300 (subpatch) 0;
#X array \$0-a3 8820 float 2;
#X coords 0 1 8819 -1 100 70 1;
#X restore 20 202 graph;
#N canvas 0 50 450 300 (subpatch) 0;
#X array \$0-a4 8820 float 2;
#X coords 0 1 8819 -1 100 70 1;
#X restore 19 290 graph;
#N canvas 0 50 450 300 (subpatch) 0;
#X array \$0-a5 8820 float 2;
#X coords 0 1 8819 -1 100 70 1;
#X restore 222 33 graph;
#N canvas 0 50 450 300 (subpatch) 0;
#X array \$0-a6 8820 float 2;
#X coords 0 1 8819 -1 100 70 1;
#X restore 221 121 graph;
#N canvas 0 50 450 300 (subpatch) 0;
#X array \$0-a7 8820 float 2;
#X coords 0 1 8819 -1 100 70 1;
#X restore 221 207 graph;
#N canvas 0 50 450 300 (subpatch) 0;
#X array \$0-a8 8820 float 2;
#X coords 0 1 8819 -1 100 70 1;
#X restore 220 295 graph;
#X restore 388 86 pd arraybank1;
#X obj 315 271 sel 1;
#X obj 315 251 change;
#X obj 315 349 bng 30 250 50 0 \$0-ampbang empty empty 0 -6 0 8 -262144
-1 -1;
#N canvas 137 241 1011 428 autorouter 0;
#X msg 24 43 bang;
#X obj 74 93 + 1;
#X obj 24 73 float;
#X msg 105 115 0;
#X floatatom 52 124 5 0 0 0 - - -, f 5;
#X obj 247 131 sel 1 2 3 4 5 6 7 8;
#X obj 105 92 sel 8;
#X obj 14 244 *~;
#X obj 65 197 bng 15 250 50 0 empty empty empty 17 7 0 10 -262144 -1
-1;
#X obj 137 243 *~;
#X obj 188 196 bng 15 250 50 0 empty empty empty 17 7 0 10 -262144
-1 -1;
#X obj 260 241 *~;
#X obj 311 194 bng 15 250 50 0 empty empty empty 17 7 0 10 -262144
-1 -1;
#X obj 29 331 *~;
#X obj 80 284 bng 15 250 50 0 empty empty empty 17 7 0 10 -262144 -1
-1;
#X obj 165 341 *~;
#X obj 216 294 bng 15 250 50 0 empty empty empty 17 7 0 10 -262144
-1 -1;
#X obj 288 340 *~;
#X obj 339 293 bng 15 250 50 0 empty empty empty 17 7 0 10 -262144
-1 -1;
#X obj 411 338 *~;
#X obj 462 291 bng 15 250 50 0 empty empty empty 17 7 0 10 -262144
-1 -1;
#X obj 389 238 *~;
#X obj 440 191 bng 15 250 50 0 empty empty empty 17 7 0 10 -262144
-1 -1;
#X obj 389 258 tabwrite~ \$0-a4;
#X obj 379 193 r~ \$0-autosig;
#X obj 250 196 r~ \$0-autosig;
#X obj 127 198 r~ \$0-autosig;
#X obj 4 199 r~ \$0-autosig;
#X obj 19 286 r~ \$0-autosig;
#X obj 14 264 tabwrite~ \$0-a1;
#X obj 29 351 tabwrite~ \$0-a5;
#X obj 137 263 tabwrite~ \$0-a2;
#X obj 260 261 tabwrite~ \$0-a3;
#X obj 412 358 tabwrite~ \$0-a8;
#X obj 288 360 tabwrite~ \$0-a7;
#X obj 165 361 tabwrite~ \$0-a6;
#X obj 155 296 r~ \$0-autosig;
#X obj 278 295 r~ \$0-autosig;
#X obj 401 293 r~ \$0-autosig;
#X obj 426 312 tabplay~ \$0-grainshape;
#X obj 404 212 tabplay~ \$0-grainshape;
#X obj 275 215 tabplay~ \$0-grainshape;
#X obj 152 217 tabplay~ \$0-grainshape;
#X obj 29 218 tabplay~ \$0-grainshape;
#X obj 44 305 tabplay~ \$0-grainshape;
#X obj 180 315 tabplay~ \$0-grainshape;
#X obj 24 16 r \$0-ampbang;
#X obj 145 116 s \$0-transientcount;
#X obj 303 314 tabplay~ \$0-grainshape;
#X connect 0 0 2 0;
#X connect 1 0 2 1;
#X connect 1 0 4 0;
#X connect 1 0 6 0;
#X connect 2 0 1 0;
#X connect 3 0 2 1;
#X connect 4 0 5 0;
#X connect 4 0 47 0;
#X connect 5 0 8 0;
#X connect 5 1 10 0;
#X connect 5 2 12 0;
#X connect 5 3 22 0;
#X connect 5 4 14 0;
#X connect 5 5 16 0;
#X connect 5 6 18 0;
#X connect 5 7 20 0;
#X connect 6 0 3 0;
#X connect 7 0 29 0;
#X connect 8 0 29 0;
#X connect 8 0 43 0;
#X connect 9 0 31 0;
#X connect 10 0 31 0;
#X connect 10 0 42 0;
#X connect 11 0 32 0;
#X connect 12 0 32 0;
#X connect 12 0 41 0;
#X connect 13 0 30 0;
#X connect 14 0 30 0;
#X connect 14 0 44 0;
#X connect 15 0 35 0;
#X connect 16 0 35 0;
#X connect 16 0 45 0;
#X connect 17 0 34 0;
#X connect 18 0 34 0;
#X connect 18 0 48 0;
#X connect 19 0 33 0;
#X connect 20 0 33 0;
#X connect 20 0 39 0;
#X connect 21 0 23 0;
#X connect 22 0 23 0;
#X connect 22 0 40 0;
#X connect 24 0 21 0;
#X connect 25 0 11 0;
#X connect 26 0 9 0;
#X connect 27 0 7 0;
#X connect 28 0 13 0;
#X connect 36 0 15 0;
#X connect 37 0 17 0;
#X connect 38 0 19 0;
#X connect 39 0 19 1;
#X connect 40 0 21 1;
#X connect 41 0 11 1;
#X connect 42 0 9 1;
#X connect 43 0 7 1;
#X connect 44 0 13 1;
#X connect 45 0 15 1;
#X connect 46 0 0 0;
#X connect 48 0 17 1;
#X restore 388 105 pd autorouter;
#N canvas 159 50 1045 689 autoplayerz 0;
#X msg 24 53 bang;
#X obj 74 93 + 1;
#X obj 24 73 float;
#X msg 105 115 0;
#X floatatom 52 124 5 0 0 0 - - -, f 5;
#X obj 52 150 sel 1 2 3 4 5 6 7 8;
#X obj 105 92 sel 8;
#X obj 15 386 vline~;
#X msg 15 365 0 \, 8820 \$1;
#X obj 15 321 pow;
#X msg 15 295 2;
#X obj 15 272 t b a;
#X obj 14 208 bng 15 250 50 0 empty empty empty 17 7 0 10 -262144 -1
-1;
#X obj 14 250 + 1;
#X obj 15 343 * 6.25;
#X obj 108 385 vline~;
#X msg 108 364 0 \, 8820 \$1;
#X obj 108 320 pow;
#X msg 108 294 2;
#X obj 108 271 t b a;
#X obj 107 207 bng 15 250 50 0 empty empty empty 17 7 0 10 -262144
-1 -1;
#X obj 107 249 + 1;
#X obj 108 342 * 6.25;
#X obj 201 384 vline~;
#X msg 201 363 0 \, 8820 \$1;
#X obj 201 319 pow;
#X msg 201 293 2;
#X obj 201 270 t b a;
#X obj 200 206 bng 15 250 50 0 empty empty empty 17 7 0 10 -262144
-1 -1;
#X obj 200 248 + 1;
#X obj 201 341 * 6.25;
#X obj 294 383 vline~;
#X msg 294 362 0 \, 8820 \$1;
#X obj 294 318 pow;
#X msg 294 292 2;
#X obj 294 269 t b a;
#X obj 293 205 bng 15 250 50 0 empty empty empty 17 7 0 10 -262144
-1 -1;
#X obj 293 247 + 1;
#X obj 294 340 * 6.25;
#X obj 388 382 vline~;
#X msg 388 361 0 \, 8820 \$1;
#X obj 388 317 pow;
#X msg 388 291 2;
#X obj 388 268 t b a;
#X obj 387 204 bng 15 250 50 0 empty empty empty 17 7 0 10 -262144
-1 -1;
#X obj 387 246 + 1;
#X obj 388 339 * 6.25;
#X obj 481 381 vline~;
#X msg 481 360 0 \, 8820 \$1;
#X obj 481 316 pow;
#X msg 481 290 2;
#X obj 481 267 t b a;
#X obj 480 203 bng 15 250 50 0 empty empty empty 17 7 0 10 -262144
-1 -1;
#X obj 480 245 + 1;
#X obj 481 338 * 6.25;
#X obj 574 380 vline~;
#X msg 574 359 0 \, 8820 \$1;
#X obj 574 315 pow;
#X msg 574 289 2;
#X obj 574 266 t b a;
#X obj 573 202 bng 15 250 50 0 empty empty empty 17 7 0 10 -262144
-1 -1;
#X obj 573 244 + 1;
#X obj 574 337 * 6.25;
#X obj 667 379 vline~;
#X msg 667 358 0 \, 8820 \$1;
#X obj 667 314 pow;
#X msg 667 288 2;
#X obj 667 265 t b a;
#X obj 666 201 bng 15 250 50 0 empty empty empty 17 7 0 10 -262144
-1 -1;
#X obj 666 243 + 1;
#X obj 667 336 * 6.25;
#X obj 798 255 sel 800;
#X obj 818 304 bng 15 250 50 0 empty empty empty 17 7 0 10 -262144
-1 -1;
#X obj 15 428 throw~ \$0-autoout;
#X obj 108 427 throw~ \$0-autoout;
#X obj 201 426 throw~ \$0-autoout;
#X obj 294 425 throw~ \$0-autoout;
#X obj 388 424 throw~ \$0-autoout;
#X obj 481 423 throw~ \$0-autoout;
#X obj 574 422 throw~ \$0-autoout;
#X obj 667 421 throw~ \$0-autoout;
#X obj 24 34 r \$0-arpbanggg;
#X obj 15 406 tabread4~ \$0-a1;
#X obj 108 405 tabread4~ \$0-a2;
#X obj 201 404 tabread4~ \$0-a3;
#X obj 294 403 tabread4~ \$0-a4;
#X obj 388 402 tabread4~ \$0-a5;
#X obj 481 401 tabread4~ \$0-a6;
#X obj 574 400 tabread4~ \$0-a7;
#X obj 667 399 tabread4~ \$0-a8;
#X obj 14 228 random 6;
#X obj 107 227 random 6;
#X obj 200 226 random 6;
#X obj 293 225 random 6;
#X obj 387 224 random 6;
#X obj 480 223 random 6;
#X obj 573 222 random 6;
#X obj 666 221 random 6;
#X obj 194 526 sel 1 2 3 4 5 6 7 8;
#X obj 266 456 r \$0-randobanggg;
#X obj 265 478 random 7;
#X obj 265 502 + 1;
#X obj 36 613 tabplay~ \$0-a1;
#X obj 129 612 tabplay~ \$0-a2;
#X obj 222 611 tabplay~ \$0-a3;
#X obj 315 610 tabplay~ \$0-a4;
#X obj 409 609 tabplay~ \$0-a5;
#X obj 502 608 tabplay~ \$0-a6;
#X obj 595 607 tabplay~ \$0-a7;
#X obj 688 606 tabplay~ \$0-a8;
#X obj 38 659 throw~ \$0-autoout;
#X obj 131 658 throw~ \$0-autoout;
#X obj 224 657 throw~ \$0-autoout;
#X obj 317 656 throw~ \$0-autoout;
#X obj 411 655 throw~ \$0-autoout;
#X obj 504 654 throw~ \$0-autoout;
#X obj 597 653 throw~ \$0-autoout;
#X obj 690 652 throw~ \$0-autoout;
#X obj 36 635 *~ 0.25;
#X obj 129 634 *~ 0.25;
#X obj 222 633 *~ 0.25;
#X obj 315 632 *~ 0.25;
#X obj 409 631 *~ 0.25;
#X obj 502 630 *~ 0.25;
#X obj 595 629 *~ 0.25;
#X obj 688 628 *~ 0.25;
#X connect 0 0 2 0;
#X connect 1 0 2 1;
#X connect 1 0 4 0;
#X connect 1 0 6 0;
#X connect 2 0 1 0;
#X connect 3 0 2 1;
#X connect 4 0 5 0;
#X connect 5 0 12 0;
#X connect 5 1 20 0;
#X connect 5 2 28 0;
#X connect 5 3 36 0;
#X connect 5 4 44 0;
#X connect 5 5 52 0;
#X connect 5 6 60 0;
#X connect 5 7 68 0;
#X connect 6 0 3 0;
#X connect 7 0 82 0;
#X connect 8 0 7 0;
#X connect 9 0 14 0;
#X connect 10 0 9 0;
#X connect 11 0 10 0;
#X connect 11 1 9 1;
#X connect 12 0 90 0;
#X connect 13 0 11 0;
#X connect 14 0 8 0;
#X connect 14 0 71 0;
#X connect 15 0 83 0;
#X connect 16 0 15 0;
#X connect 17 0 22 0;
#X connect 18 0 17 0;
#X connect 19 0 18 0;
#X connect 19 1 17 1;
#X connect 20 0 91 0;
#X connect 21 0 19 0;
#X connect 22 0 16 0;
#X connect 22 0 71 0;
#X connect 23 0 84 0;
#X connect 24 0 23 0;
#X connect 25 0 30 0;
#X connect 26 0 25 0;
#X connect 27 0 26 0;
#X connect 27 1 25 1;
#X connect 28 0 92 0;
#X connect 29 0 27 0;
#X connect 30 0 24 0;
#X connect 30 0 71 0;
#X connect 31 0 85 0;
#X connect 32 0 31 0;
#X connect 33 0 38 0;
#X connect 34 0 33 0;
#X connect 35 0 34 0;
#X connect 35 1 33 1;
#X connect 36 0 93 0;
#X connect 37 0 35 0;
#X connect 38 0 32 0;
#X connect 38 0 71 0;
#X connect 39 0 86 0;
#X connect 40 0 39 0;
#X connect 41 0 46 0;
#X connect 42 0 41 0;
#X connect 43 0 42 0;
#X connect 43 1 41 1;
#X connect 44 0 94 0;
#X connect 45 0 43 0;
#X connect 46 0 40 0;
#X connect 46 0 71 0;
#X connect 47 0 87 0;
#X connect 48 0 47 0;
#X connect 49 0 54 0;
#X connect 50 0 49 0;
#X connect 51 0 50 0;
#X connect 51 1 49 1;
#X connect 52 0 95 0;
#X connect 53 0 51 0;
#X connect 54 0 48 0;
#X connect 54 0 71 0;
#X connect 55 0 88 0;
#X connect 56 0 55 0;
#X connect 57 0 62 0;
#X connect 58 0 57 0;
#X connect 59 0 58 0;
#X connect 59 1 57 1;
#X connect 60 0 96 0;
#X connect 61 0 59 0;
#X connect 62 0 56 0;
#X connect 62 0 71 0;
#X connect 63 0 89 0;
#X connect 64 0 63 0;
#X connect 65 0 70 0;
#X connect 66 0 65 0;
#X connect 67 0 66 0;
#X connect 67 1 65 1;
#X connect 68 0 97 0;
#X connect 69 0 67 0;
#X connect 70 0 64 0;
#X connect 70 0 71 0;
#X connect 71 0 72 0;
#X connect 81 0 0 0;
#X connect 82 0 73 0;
#X connect 83 0 74 0;
#X connect 84 0 75 0;
#X connect 85 0 76 0;
#X connect 86 0 77 0;
#X connect 87 0 78 0;
#X connect 88 0 79 0;
#X connect 89 0 80 0;
#X connect 90 0 13 0;
#X connect 91 0 21 0;
#X connect 92 0 29 0;
#X connect 93 0 37 0;
#X connect 94 0 45 0;
#X connect 95 0 53 0;
#X connect 96 0 61 0;
#X connect 97 0 69 0;
#X connect 98 0 102 0;
#X connect 98 1 103 0;
#X connect 98 2 104 0;
#X connect 98 3 105 0;
#X connect 98 4 106 0;
#X connect 98 5 107 0;
#X connect 98 6 108 0;
#X connect 98 7 109 0;
#X connect 99 0 100 0;
#X connect 100 0 101 0;
#X connect 101 0 98 0;
#X connect 102 0 118 0;
#X connect 103 0 119 0;
#X connect 104 0 120 0;
#X connect 105 0 121 0;
#X connect 106 0 122 0;
#X connect 107 0 123 0;
#X connect 108 0 124 0;
#X connect 109 0 125 0;
#X connect 118 0 110 0;
#X connect 119 0 111 0;
#X connect 120 0 112 0;
#X connect 121 0 113 0;
#X connect 122 0 114 0;
#X connect 123 0 115 0;
#X connect 124 0 116 0;
#X connect 125 0 117 0;
#X restore 388 125 pd autoplayerz;
#X obj 315 328 spigot;
#X obj 348 291 realtime;
#X obj 391 267 bang~;
#X obj 348 309 > 200;
#X floatatom 383 234 5 0 0 0 - - -, f 5;
#X obj 305 541 bng 15 250 50 0 empty empty empty 17 7 0 10 -262144
-1 -1;
#X obj 22 309 osc~;
#X obj 22 268 random 1000;
#X obj 62 346 *~;
#X obj 100 376 *~;
#X obj 115 324 *~ -1;
#X obj 22 288 * 0.001;
#X text 347 354 sample it;
#X text 256 539 play it;
#X obj 37 162 catch~ \$0-autoout;
#X obj 305 559 s \$0-arpbanggg;
#X obj 390 206 s~ \$0-autosig;
#X obj 116 597 dac~;
#N canvas 0 50 464 487 snarekick 0;
#X obj 189 134 sel 0;
#X obj 189 226 line~;
#X obj 162 249 *~;
#X obj 312 224 noise~;
#X msg 189 199 \$1 \, 0 100;
#X obj 189 154 random 100;
#X obj 64 141 sel 4;
#X obj 66 236 line~;
#X obj 66 164 random 100;
#X obj 51 258 *~;
#X obj 367 137 sel 0;
#X obj 367 229 line~;
#X obj 366 311 *~;
#X obj 367 157 random 100;
#X obj 367 178 * 0.01;
#X obj 194 395 cos~;
#X obj 11 215 osc~ 90;
#X obj 66 185 * 0.01;
#X obj 189 175 * 0.008;
#X msg 66 209 \$1 \, 0 50;
#X obj 78 42 inlet;
#X obj 189 108 random 8;
#X obj 367 111 random 2;
#X obj 170 269 delwrite~ \$0-comb 100;
#X obj 289 291 *~ 0.9;
#X obj 175 291 delread~ \$0-comb 5;
#X obj 258 154 random 100;
#X obj 258 175 * 0.008;
#X obj 196 314 sig~ 666;
#X obj 180 335 vcf~ 5;
#X obj 181 359 *~ 20;
#X obj 183 418 *~ 1;
#X obj 177 448 outlet~;
#X obj 221 417 *~ 50;
#X msg 367 202 \$1 \, 0 20;
#X obj 259 417 clip~ -0.3 0.3;
#X connect 0 0 5 0;
#X connect 0 0 26 0;
#X connect 1 0 2 1;
#X connect 2 0 23 0;
#X connect 3 0 2 0;
#X connect 3 0 12 0;
#X connect 4 0 1 0;
#X connect 5 0 18 0;
#X connect 6 0 8 0;
#X connect 7 0 9 1;
#X connect 8 0 17 0;
#X connect 9 0 15 0;
#X connect 9 0 29 0;
#X connect 9 0 31 0;
#X connect 10 0 13 0;
#X connect 11 0 12 1;
#X connect 12 0 15 0;
#X connect 13 0 14 0;
#X connect 14 0 34 0;
#X connect 15 0 31 0;
#X connect 16 0 9 0;
#X connect 17 0 19 0;
#X connect 18 0 4 0;
#X connect 19 0 7 0;
#X connect 20 0 21 0;
#X connect 20 0 22 0;
#X connect 21 0 0 0;
#X connect 21 0 6 0;
#X connect 22 0 10 0;
#X connect 24 0 23 0;
#X connect 25 0 24 0;
#X connect 25 0 29 0;
#X connect 26 0 27 0;
#X connect 27 0 24 1;
#X connect 28 0 29 1;
#X connect 29 0 30 0;
#X connect 30 0 31 0;
#X connect 31 0 33 0;
#X connect 31 0 32 0;
#X connect 33 0 35 0;
#X connect 34 0 11 0;
#X connect 35 0 32 0;
#X restore 173 394 pd snarekick;
#X obj 173 347 tgl 15 0 empty empty empty 17 7 0 10 -262144 -1 -1 1
1;
#X obj 314 210 env~ 64;
#X obj 173 419 lop~ 500;
#X msg 52 54 \; pd dsp 1;
#X obj 253 394 random 1000;
#X text 386 69 200ms arrays;
#X obj 173 369 metro 200;
#X obj 147 111 readsf~;
#X obj 305 487 random 2;
#X obj 320 450 s \$0-randobanggg;
#X obj 305 515 metro 100;
#X text 73 95 would work better w/ radio;
#N canvas 35 66 592 433 Hann-window 0;
#N canvas 0 50 450 300 (subpatch) 0;
#X array \$0-hann 512 float 0;
#X coords 0 1 511 0 200 120 1;
#X restore 293 249 graph;
#X msg 171 263 0;
#X obj 65 312 osc~;
#X obj 65 264 samplerate~;
#X obj 65 335 *~ -0.5;
#X obj 65 358 +~ 0.5;
#X obj 57 383 tabwrite~ \$0-hann;
#X text 279 241 1;
#X text 272 359 0;
#X text 288 372 0;
#X obj 65 288 / 512;
#X obj 57 241 bng 15 250 50 0 empty empty empty 0 -6 0 8 -262144 -1
-1;
#X text 336 221 Hann window;
#X text 113 310 period 512;
#X text 90 215 recalculate Hann;
#X text 125 230 window table;
#X obj 57 146 loadbang;
#X msg 79 179 \; pd dsp 1;
#X text 40 27 The Hann window is now recomputed on 'loadbang' to make
the file smaller (it doesn't have to be saved with the array.);
#X text 474 375 511;
#X connect 1 0 2 1;
#X connect 2 0 4 0;
#X connect 3 0 10 0;
#X connect 4 0 5 0;
#X connect 5 0 6 0;
#X connect 10 0 2 0;
#X connect 11 0 3 0;
#X connect 11 0 1 0;
#X connect 11 0 6 0;
#X connect 16 0 11 0;
#X connect 16 0 17 0;
#X restore 24 543 pd Hann-window;
#N canvas 148 208 631 441 fft 0;
#X obj 37 13 inlet~;
#X obj 313 19 inlet~;
#X obj 55 392 outlet~;
#X obj 436 408 outlet~;
#X msg 192 206 1;
#X obj 201 171 loadbang;
#X obj 53 55 *~;
#X obj 74 31 tabreceive~ \$0-hann;
#X obj 327 69 *~;
#X obj 348 45 tabreceive~ \$0-hann;
#X obj 69 359 *~;
#X obj 118 346 tabreceive~ \$0-hann;
#X obj 446 367 *~;
#X obj 499 357 tabreceive~ \$0-hann;
#X obj 97 312 *~;
#X obj 64 313 *~;
#X obj 65 79 rfft~;
#X obj 148 128 *~;
#X obj 64 336 rifft~;
#X obj 114 128 *~;
#X obj 114 151 +~;
#X obj 114 176 +~ 1e-20;
#X obj 417 328 *~;
#X obj 384 329 *~;
#X obj 385 95 rfft~;
#X obj 468 144 *~;
#X obj 384 352 rifft~;
#X obj 434 144 *~;
#X obj 434 167 +~;
#X obj 434 192 +~ 1e-20;
#X obj 433 230 rsqrt~;
#X obj 113 214 rsqrt~;
#X obj 192 227 block~ 512 4;
#X obj 114 281 clip~ 0 0.009;
#X obj 434 297 clip~ 0 0.009;
#X connect 0 0 6 0;
#X connect 1 0 8 0;
#X connect 4 0 32 0;
#X connect 5 0 4 0;
#X connect 6 0 16 0;
#X connect 7 0 6 1;
#X connect 8 0 24 0;
#X connect 9 0 8 1;
#X connect 10 0 2 0;
#X connect 11 0 10 1;
#X connect 12 0 3 0;
#X connect 13 0 12 1;
#X connect 14 0 18 1;
#X connect 15 0 18 0;
#X connect 16 0 19 0;
#X connect 16 0 19 1;
#X connect 16 0 14 0;
#X connect 16 1 17 0;
#X connect 16 1 17 1;
#X connect 16 1 15 0;
#X connect 17 0 20 1;
#X connect 18 0 10 0;
#X connect 19 0 20 0;
#X connect 20 0 21 0;
#X connect 21 0 31 0;
#X connect 22 0 26 1;
#X connect 23 0 26 0;
#X connect 24 0 27 0;
#X connect 24 0 27 1;
#X connect 24 0 23 0;
#X connect 24 1 25 0;
#X connect 24 1 25 1;
#X connect 24 1 22 0;
#X connect 25 0 28 1;
#X connect 26 0 12 0;
#X connect 27 0 28 0;
#X connect 28 0 29 0;
#X connect 29 0 30 0;
#X connect 30 0 34 0;
#X connect 31 0 33 0;
#X connect 33 0 15 1;
#X connect 33 0 14 1;
#X connect 34 0 23 1;
#X connect 34 0 22 1;
#X restore 116 544 pd fft;
#N canvas 0 50 385 312 panbang 0;
#X obj 35 82 random 1000;
#X obj 35 54 inlet;
#X obj 137 14 inlet~;
#X obj 39 213 *~;
#X obj 130 213 *~;
#X obj 58 132 expr ($f1*-1)+1;
#X obj 39 251 outlet~;
#X obj 130 252 outlet~;
#X obj 37 159 pack 0 5;
#X obj 101 161 pack 0 5;
#X obj 33 186 line~;
#X obj 107 187 line~;
#X obj 35 102 * 0.0005;
#X obj 181 182 delwrite~ \$0-dubz 200;
#X obj 112 81 random 1000;
#X obj 181 147 *~ 0;
#X obj 240 230 *~ 0.9;
#X obj 181 206 vd~ \$0-dubz;
#X obj 232 144 sig~ 50;
#X obj 112 101 * 0.00025;
#X obj 231 78 random 3;
#X obj 232 99 + 1;
#X obj 232 121 * 25;
#X obj 240 252 lop~ 5000;
#X obj 289 71 random 10000;
#X connect 0 0 12 0;
#X connect 1 0 0 0;
#X connect 1 0 14 0;
#X connect 1 0 20 0;
#X connect 1 0 24 0;
#X connect 2 0 3 0;
#X connect 2 0 4 0;
#X connect 2 0 15 0;
#X connect 3 0 6 0;
#X connect 4 0 7 0;
#X connect 5 0 9 0;
#X connect 8 0 10 0;
#X connect 9 0 11 0;
#X connect 10 0 3 1;
#X connect 11 0 4 1;
#X connect 12 0 5 0;
#X connect 12 0 8 0;
#X connect 14 0 19 0;
#X connect 15 0 13 0;
#X connect 16 0 23 0;
#X connect 17 0 7 0;
#X connect 17 0 6 0;
#X connect 17 0 16 0;
#X connect 18 0 17 0;
#X connect 19 0 15 1;
#X connect 20 0 21 0;
#X connect 21 0 22 0;
#X connect 22 0 18 0;
#X connect 23 0 13 0;
#X connect 24 0 23 1;
#X restore 116 479 pd panbang;
#X obj 185 14 declare -path ./samples;
#X msg 127 35 open ./samples/guitar.wav \, start;
#X obj 315 231 > 55;
#X obj 77 484 *~ 1;
#X obj 186 481 *~ 1;
#X obj 93 197 sig~ 444;
#N canvas 0 22 450 300 mastering 0;
#X obj 58 160 expr~ tanh($v1);
#X obj 59 114 hip~ 5;
#X obj 58 138 *~ 0.07;
#X obj 59 45 inlet~;
#X obj 59 193 outlet~;
#X obj 186 158 expr~ tanh($v1);
#X obj 187 112 hip~ 5;
#X obj 186 136 *~ 0.07;
#X obj 187 43 inlet~;
#X obj 187 191 outlet~;
#X obj 59 78 lop~ 9000;
#X obj 187 77 lop~ 9000;
#X connect 0 0 4 0;
#X connect 1 0 2 0;
#X connect 2 0 0 0;
#X connect 3 0 10 0;
#X connect 5 0 9 0;
#X connect 6 0 7 0;
#X connect 7 0 5 0;
#X connect 8 0 11 0;
#X connect 10 0 1 0;
#X connect 11 0 6 0;
#X restore 116 571 pd mastering;
#N canvas 0 22 447 348 lopassverb 0;
#X obj 59 235 lop~ 9000;
#X obj 57 49 inlet~;
#X obj 59 288 outlet~;
#X obj 186 236 lop~ 9000;
#X obj 184 50 inlet~;
#X obj 186 289 outlet~;
#X obj 90 191 rev2~ 90 90 3000 5;
#X obj 90 169 *~;
#X obj 105 148 * 0.001;
#X obj 265 28 inlet;
#X obj 265 53 random 1000;
#X obj 294 74 random 2;
#X obj 265 100 *;
#X obj 349 51 random 30;
#X obj 349 78 + 70;
#X connect 0 0 2 0;
#X connect 1 0 0 0;
#X connect 1 0 7 0;
#X connect 3 0 5 0;
#X connect 4 0 3 0;
#X connect 4 0 7 0;
#X connect 6 0 3 0;
#X connect 6 1 0 0;
#X connect 6 2 3 0;
#X connect 6 3 0 0;
#X connect 7 0 6 0;
#X connect 8 0 7 1;
#X connect 9 0 10 0;
#X connect 9 0 11 0;
#X connect 9 0 13 0;
#X connect 10 0 12 0;
#X connect 11 0 12 1;
#X connect 12 0 8 0;
#X connect 13 0 14 0;
#X connect 14 0 6 2;
#X restore 132 512 pd lopassverb;
#X obj 75 243 *~ 5;
#X obj 74 219 vcf~ 10;
#X connect 0 0 27 0;
#X connect 0 0 30 0;
#X connect 0 0 43 0;
#X connect 3 0 8 0;
#X connect 3 0 9 0;
#X connect 4 0 3 0;
#X connect 8 0 5 0;
#X connect 9 0 11 0;
#X connect 10 0 9 1;
#X connect 11 0 8 1;
#X connect 13 0 15 0;
#X connect 13 0 23 0;
#X connect 14 0 16 1;
#X connect 14 0 18 0;
#X connect 15 0 19 0;
#X connect 16 0 17 0;
#X connect 17 0 46 0;
#X connect 18 0 17 1;
#X connect 19 0 14 0;
#X connect 22 0 16 0;
#X connect 22 0 17 0;
#X connect 22 0 45 0;
#X connect 22 0 51 0;
#X connect 26 0 29 0;
#X connect 27 0 33 0;
#X connect 28 0 12 0;
#X connect 28 0 44 0;
#X connect 29 0 41 1;
#X connect 31 0 29 1;
#X connect 33 0 26 0;
#X connect 33 0 31 0;
#X connect 33 0 35 0;
#X connect 33 0 36 0;
#X connect 33 0 41 0;
#X connect 33 0 49 2;
#X connect 34 0 28 0;
#X connect 34 0 24 0;
#X connect 34 1 43 0;
#X connect 35 0 37 0;
#X connect 37 0 13 0;
#X connect 40 0 48 0;
#X connect 40 1 48 1;
#X connect 41 0 40 0;
#X connect 41 1 40 1;
#X connect 43 0 34 0;
#X connect 44 0 4 0;
#X connect 45 0 49 0;
#X connect 46 0 49 1;
#X connect 47 0 51 1;
#X connect 48 0 25 0;
#X connect 48 1 25 1;
#X connect 49 0 40 0;
#X connect 49 1 40 1;
#X connect 50 0 16 0;
#X connect 50 0 17 0;
#X connect 51 0 50 0;
