#N canvas 290 23 1135 749 10;
#X obj 353 346 *~;
#X obj 545 330 *~;
#X obj 643 303 expr ($f1*-1)+1;
#X obj 643 282 * 0.01;
#X obj 643 261 random 100;
#X obj 529 41 bng 15 250 50 0 empty empty empty 17 7 0 10 -262144 -1
-1;
#X obj 453 24 loadbang;
#X obj 493 283 vd~ \$0-shawty 15;
#X obj 424 162 random 100;
#X obj 424 204 sig~;
#X obj 424 183 * 1;
#X obj 494 261 delwrite~ \$0-shawty 150;
#X obj 487 604 *~;
#X obj 583 604 *~;
#X obj 588 568 vline~;
#X obj 588 529 * 0.001;
#X obj 588 508 random 1000;
#X obj 354 377 lop~;
#X obj 540 357 lop~;
#X obj 354 403 hip~;
#X obj 540 383 hip~;
#X obj 943 208 bng 15 250 50 0 empty empty empty 17 7 0 10 -262144
-1 -1;
#X obj 740 351 random 5000;
#X obj 355 467 delwrite~ \$0-shiwty 150;
#X obj 354 487 vd~ \$0-shiwty 15;
#X obj 578 435 delwrite~ \$0-shewty 150;
#X obj 577 455 vd~ \$0-shewty 15;
#X obj 471 573 vline~;
#X obj 471 534 * 0.001;
#X obj 471 513 random 1000;
#X obj 456 603 *~;
#X obj 611 605 *~;
#X obj 390 405 random 100;
#X obj 390 447 sig~;
#X obj 390 426 * 1;
#X obj 602 370 random 100;
#X obj 602 412 sig~;
#X obj 602 391 * 1;
#X obj 549 484 random 5000;
#X obj 462 708 outlet~;
#X obj 571 708 outlet~;
#X obj 757 391 random 1000;
#X obj 766 411 random 6000;
#X obj 747 370 random 8000;
#X obj 463 685 *~;
#X obj 572 687 *~;
#X obj 546 648 bng 15 250 50 0 empty empty empty 17 7 0 10 -262144
-1 -1;
#X obj 528 16 inlet;
#X obj 913 259 random 10000;
#X obj 923 269 random 10000;
#X obj 933 279 random 10000;
#X obj 943 289 random 10000;
#X obj 299 438 *~ 0.77;
#X obj 424 261 *~ 0.77;
#X obj 525 441 *~ 0.77;
#X obj 471 554 pack 0 1000;
#X obj 588 548 pack 0 1000;
#X obj 772 450 bng 15 250 50 0 empty empty empty 17 7 0 10 -262144
-1 -1;
#X obj 478 645 random 15;
#X obj 587 647 random 15;
#X obj 45 167 random 1000;
#X obj 45 212 pack 0 1000;
#X obj 45 133 bng 15 250 50 0 empty empty empty 17 7 0 10 -262144 -1
-1;
#X obj 45 234 line;
#X obj 121 165 random 1000;
#X obj 121 210 pack 0 1000;
#X obj 121 232 line;
#X obj 195 164 random 1000;
#X obj 195 209 pack 0 1000;
#X obj 195 231 line;
#X obj 271 183 pack 0 1000;
#X obj 271 205 line;
#X obj 45 188 * 0.001;
#X obj 121 187 * 0.001;
#X obj 195 185 * 0.001;
#X obj 45 255 - 0.1;
#X obj 121 253 - 0.1;
#X obj 271 162 random 3000;
#X obj 196 252 - 0.1;
#X obj 478 664 > 13;
#X obj 587 667 > 13;
#X obj 497 230 *~ 1;
#X obj 497 141 osc~;
#X obj 496 168 *~ 10000;
#X obj 496 199 clip~ -1 1;
#X obj 579 626 *~ 1;
#X obj 462 625 *~ 1;
#X obj 765 61 inlet;
#X obj 766 84 expr 1000/$f1;
#X floatatom 765 107 5 0 0 0 - - -, f 5;
#X obj 646 56 random 10;
#X obj 647 79 * 0.5;
#X obj 646 102 i;
#X obj 497 118 * 1;
#X connect 0 0 17 0;
#X connect 0 0 12 0;
#X connect 1 0 18 0;
#X connect 1 0 13 0;
#X connect 2 0 1 1;
#X connect 3 0 2 0;
#X connect 3 0 0 1;
#X connect 4 0 3 0;
#X connect 5 0 16 0;
#X connect 5 0 21 0;
#X connect 5 0 29 0;
#X connect 5 0 46 0;
#X connect 5 0 8 0;
#X connect 5 0 62 0;
#X connect 5 0 35 0;
#X connect 5 0 4 0;
#X connect 5 0 32 0;
#X connect 5 0 90 0;
#X connect 6 0 5 0;
#X connect 7 0 0 0;
#X connect 7 0 1 0;
#X connect 7 0 53 0;
#X connect 8 0 10 0;
#X connect 9 0 7 0;
#X connect 10 0 9 0;
#X connect 12 0 86 0;
#X connect 13 0 85 0;
#X connect 14 0 13 1;
#X connect 14 0 12 1;
#X connect 15 0 56 0;
#X connect 16 0 15 0;
#X connect 17 0 19 0;
#X connect 18 0 20 0;
#X connect 19 0 23 0;
#X connect 20 0 25 0;
#X connect 21 0 22 0;
#X connect 21 0 41 0;
#X connect 21 0 42 0;
#X connect 21 0 43 0;
#X connect 21 0 48 0;
#X connect 21 0 49 0;
#X connect 21 0 50 0;
#X connect 21 0 51 0;
#X connect 21 0 57 0;
#X connect 22 0 18 1;
#X connect 24 0 30 0;
#X connect 24 0 52 0;
#X connect 26 0 31 0;
#X connect 26 0 54 0;
#X connect 27 0 31 1;
#X connect 27 0 30 1;
#X connect 28 0 55 0;
#X connect 29 0 28 0;
#X connect 30 0 86 0;
#X connect 31 0 85 0;
#X connect 32 0 34 0;
#X connect 33 0 24 0;
#X connect 34 0 33 0;
#X connect 35 0 37 0;
#X connect 36 0 26 0;
#X connect 37 0 36 0;
#X connect 38 0 29 1;
#X connect 38 0 56 1;
#X connect 41 0 19 1;
#X connect 42 0 20 1;
#X connect 43 0 17 1;
#X connect 44 0 39 0;
#X connect 45 0 40 0;
#X connect 46 0 58 0;
#X connect 46 0 59 0;
#X connect 47 0 5 0;
#X connect 48 0 22 1;
#X connect 49 0 43 1;
#X connect 50 0 41 1;
#X connect 51 0 42 1;
#X connect 52 0 23 0;
#X connect 53 0 11 0;
#X connect 54 0 25 0;
#X connect 55 0 27 0;
#X connect 56 0 14 0;
#X connect 57 0 38 0;
#X connect 58 0 79 0;
#X connect 59 0 80 0;
#X connect 60 0 72 0;
#X connect 61 0 63 0;
#X connect 62 0 60 0;
#X connect 62 0 64 0;
#X connect 62 0 67 0;
#X connect 62 0 77 0;
#X connect 63 0 75 0;
#X connect 64 0 73 0;
#X connect 65 0 66 0;
#X connect 66 0 76 0;
#X connect 67 0 74 0;
#X connect 68 0 69 0;
#X connect 69 0 78 0;
#X connect 70 0 71 0;
#X connect 72 0 61 0;
#X connect 73 0 65 0;
#X connect 74 0 68 0;
#X connect 75 0 54 1;
#X connect 76 0 52 1;
#X connect 77 0 70 0;
#X connect 78 0 53 1;
#X connect 79 0 44 1;
#X connect 80 0 45 1;
#X connect 81 0 11 0;
#X connect 82 0 83 0;
#X connect 83 0 84 0;
#X connect 84 0 81 0;
#X connect 85 0 45 0;
#X connect 86 0 44 0;
#X connect 87 0 88 0;
#X connect 88 0 89 0;
#X connect 89 0 93 0;
#X connect 90 0 91 0;
#X connect 91 0 92 0;
#X connect 92 0 93 1;
#X connect 93 0 82 0;
