#N canvas 593 66 285 507 10;
#X obj 58 449 outlet~;
#X obj 58 408 *~;
#X obj 179 202 vline~;
#X obj 31 381 osc~;
#X obj 58 193 vline~;
#X obj 58 22 inlet;
#X obj 58 50 sel \$5;
#X msg 58 162 \$1 \, \$2 \$3;
#X msg 179 178 1 \, 0 \$1;
#X obj 58 134 pack 0 0 0;
#X obj 58 77 f \$1;
#X obj 86 96 f \$2;
#X obj 115 115 f \$3;
#X obj 58 429 *~ \$6;
#X obj 179 92 random \$4;
#X obj 179 157 +;
#X obj 197 114 f \$4;
#X obj 197 64 loadbang;
#X obj 197 134 * 0.125;
#X obj 194 324 vline~;
#X obj 179 348 *~;
#X msg 194 304 0 \, \$1 0.1;
#X obj 194 264 * 0.001;
#X obj 194 245 random 500;
#X obj 194 284 + 0.5;
#X obj 92 339 *~ 0.151515;
#X obj 92 275 vline~;
#X msg 92 251 1 \, 0 5;
#X obj 92 318 *~;
#X obj 130 301 noise~;
#X obj 46 339 *~;
#X obj 31 360 +~;
#X obj 46 319 osc~;
#X obj 46 299 r fek;
#X obj 61 275 r ar;
#X connect 1 0 13 0;
#X connect 2 0 20 0;
#X connect 3 0 1 0;
#X connect 4 0 31 0;
#X connect 5 0 6 0;
#X connect 6 0 10 0;
#X connect 6 0 11 0;
#X connect 6 0 12 0;
#X connect 6 0 14 0;
#X connect 6 0 23 0;
#X connect 6 0 27 0;
#X connect 7 0 4 0;
#X connect 8 0 2 0;
#X connect 9 0 7 0;
#X connect 10 0 9 0;
#X connect 11 0 9 1;
#X connect 12 0 9 2;
#X connect 13 0 0 0;
#X connect 14 0 15 0;
#X connect 15 0 8 0;
#X connect 16 0 18 0;
#X connect 17 0 16 0;
#X connect 17 0 12 0;
#X connect 17 0 11 0;
#X connect 17 0 10 0;
#X connect 18 0 15 1;
#X connect 19 0 20 1;
#X connect 20 0 1 1;
#X connect 21 0 19 0;
#X connect 22 0 24 0;
#X connect 23 0 22 0;
#X connect 24 0 21 0;
#X connect 25 0 1 0;
#X connect 26 0 28 0;
#X connect 27 0 26 0;
#X connect 28 0 25 0;
#X connect 29 0 28 1;
#X connect 30 0 31 1;
#X connect 31 0 3 0;
#X connect 32 0 30 0;
#X connect 33 0 32 0;
#X connect 34 0 30 1;
