#N canvas 441 23 541 717 10;
#X obj 152 233 *~;
#X obj 152 609 outlet~;
#X obj 178 208 vline~;
#X obj 178 187 pack;
#X obj 225 104 metro;
#X obj 225 35 loadbang;
#X obj 252 80 random 10000;
#X obj 225 126 random 10000;
#X obj 235 136 random 10000;
#X obj 235 157 * 0.0001;
#X obj 152 337 *~;
#X obj 306 252 vline~;
#X obj 306 231 pack;
#X obj 353 148 metro;
#X obj 380 124 random 10000;
#X obj 353 170 random 10000;
#X obj 171 273 sig~ \$1;
#X obj 60 160 clip~ 0.99 1;
#X obj 60 179 -~ 0.99;
#X obj 60 198 *~ 100;
#X obj 60 41 metro;
#X obj 138 61 random 10000;
#X obj 60 61 random 10000;
#X obj 113 24 bng 15 250 50 0 empty empty empty 17 7 0 10 -262144 -1
-1;
#X obj 60 122 vline~;
#X obj 60 103 pack;
#X obj 60 82 * 0.01;
#X obj 81 240 inlet~;
#X obj 366 211 * 0.005;
#X obj 60 141 osc~ 1;
#X obj 137 185 tgl 15 0 empty empty empty 17 7 0 10 -262144 -1 -1 0
1;
#X obj 137 203 * 100;
#X obj 306 277 *~;
#X obj 306 298 *~ 0.01;
#X obj 306 320 clip~ 0 20;
#X obj 152 480 *~;
#X obj 195 369 * 0.01;
#X obj 194 390 > 1;
#X obj 194 449 vline~;
#X obj 194 428 pack 0 11;
#X obj 195 349 random 115;
#X obj 242 242 + 100;
#X obj 230 216 random 31;
#X obj 388 87 random 10000;
#X obj 366 190 random 10000;
#X obj 156 136 random 10;
#X obj 141 159 > 8;
#X obj 152 574 expr~ tanh($v1);
#X obj 152 511 lop~ 11000;
#X obj 152 553 hip~ 15;
#X obj 152 531 *~ 0.04;
#X obj 152 304 vcf~ 55;
#X connect 0 0 51 0;
#X connect 2 0 0 1;
#X connect 3 0 2 0;
#X connect 4 0 7 0;
#X connect 4 0 8 0;
#X connect 4 0 40 0;
#X connect 4 0 42 0;
#X connect 4 0 43 0;
#X connect 4 0 45 0;
#X connect 5 0 4 0;
#X connect 5 0 6 0;
#X connect 5 0 14 0;
#X connect 5 0 13 0;
#X connect 5 0 23 0;
#X connect 6 0 4 1;
#X connect 7 0 3 1;
#X connect 8 0 9 0;
#X connect 9 0 3 0;
#X connect 10 0 35 0;
#X connect 11 0 32 1;
#X connect 11 0 32 0;
#X connect 12 0 11 0;
#X connect 13 0 15 0;
#X connect 13 0 44 0;
#X connect 14 0 13 1;
#X connect 15 0 12 1;
#X connect 16 0 51 1;
#X connect 17 0 18 0;
#X connect 18 0 19 0;
#X connect 19 0 0 0;
#X connect 20 0 21 0;
#X connect 20 0 22 0;
#X connect 21 0 20 1;
#X connect 21 0 25 1;
#X connect 22 0 26 0;
#X connect 23 0 20 0;
#X connect 24 0 29 0;
#X connect 25 0 24 0;
#X connect 26 0 25 0;
#X connect 27 0 51 0;
#X connect 28 0 12 0;
#X connect 29 0 17 0;
#X connect 30 0 31 0;
#X connect 31 0 19 1;
#X connect 32 0 33 0;
#X connect 33 0 34 0;
#X connect 34 0 10 1;
#X connect 35 0 48 0;
#X connect 36 0 37 0;
#X connect 37 0 39 0;
#X connect 38 0 35 1;
#X connect 39 0 38 0;
#X connect 40 0 36 0;
#X connect 41 0 40 1;
#X connect 42 0 41 0;
#X connect 43 0 7 1;
#X connect 43 0 6 1;
#X connect 43 0 14 1;
#X connect 43 0 15 1;
#X connect 44 0 28 0;
#X connect 45 0 46 0;
#X connect 46 0 30 0;
#X connect 47 0 1 0;
#X connect 48 0 50 0;
#X connect 49 0 47 0;
#X connect 50 0 49 0;
#X connect 51 0 10 0;
