#N canvas 67 84 493 481 10;
#X declare -path ./objects;
#X obj 28 46 tgl 25 0 empty empty empty 17 7 0 10 -261234 -1 -1 1 1
;
#X obj 28 24 loadbang;
#X msg 131 41 \; pd dsp 1;
#X obj 28 82 metro 120;
#X obj 28 252 thru~;
#X obj 28 147 tablenge2_gen_engine;
#N canvas 4 84 472 326 tablonoff 0;
#X obj 21 25 inlet;
#X obj 21 271 outlet;
#X obj 69 271 outlet;
#X obj 54 213 tgl 15 0 empty empty empty 17 7 0 10 -262144 -1 -1 0
1;
#X obj 21 234 spigot;
#X obj 102 213 tgl 15 0 empty empty empty 17 7 0 10 -262144 -1 -1 0
1;
#X obj 69 234 spigot;
#X obj 289 223 f;
#X obj 315 224 + 1;
#X floatatom 298 246 5 0 0 0 - - -, f 5;
#X obj 62 83 loadbang;
#X obj 298 266 sel 0;
#X obj 62 103 s \$0-codblang;
#X obj 297 183 r \$0-codblang;
#X obj 35 50 s \$0-inletbang;
#X obj 210 202 r \$0-inletbang;
#X obj 340 224 mod 200;
#X obj 315 203 random 200;
#X obj 214 58 f;
#X obj 240 59 + 1;
#X floatatom 223 81 5 0 0 0 - - -, f 5;
#X obj 223 101 sel 0;
#X obj 222 18 r \$0-codblang;
#X obj 135 37 r \$0-inletbang;
#X obj 269 68 mod 200;
#X obj 240 38 random 200;
#X obj 310 43 + 100;
#X obj 390 223 + 100;
#X floatatom 307 92 5 0 0 0 - - -, f 5;
#X floatatom 390 244 5 0 0 0 - - -, f 5;
#X obj 390 203 random 100;
#X obj 310 23 random 100;
#X obj 298 289 random 2;
#X obj 223 121 random 2;
#X connect 0 0 4 0;
#X connect 0 0 6 0;
#X connect 0 0 14 0;
#X connect 3 0 4 1;
#X connect 4 0 1 0;
#X connect 5 0 6 1;
#X connect 6 0 2 0;
#X connect 7 0 8 0;
#X connect 7 0 9 0;
#X connect 8 0 16 0;
#X connect 9 0 11 0;
#X connect 10 0 12 0;
#X connect 11 0 32 0;
#X connect 13 0 17 0;
#X connect 13 0 30 0;
#X connect 15 0 7 0;
#X connect 16 0 7 1;
#X connect 17 0 8 0;
#X connect 18 0 19 0;
#X connect 18 0 20 0;
#X connect 19 0 24 0;
#X connect 20 0 21 0;
#X connect 21 0 33 0;
#X connect 22 0 25 0;
#X connect 22 0 31 0;
#X connect 23 0 18 0;
#X connect 24 0 18 1;
#X connect 25 0 19 0;
#X connect 26 0 25 1;
#X connect 26 0 24 1;
#X connect 26 0 28 0;
#X connect 27 0 17 1;
#X connect 27 0 16 1;
#X connect 27 0 29 0;
#X connect 30 0 27 0;
#X connect 31 0 26 0;
#X connect 32 0 5 0;
#X connect 33 0 3 0;
#X restore 28 124 pd tablonoff;
#X obj 55 167 tablenge2_gen_engine;
#X obj 195 387 thru~;
#X obj 195 445 dac~;
#X obj 211 183 tablenge2_gen_engine;
#N canvas 0 50 472 326 tablonoff 0;
#X obj 21 25 inlet;
#X obj 21 271 outlet;
#X obj 69 271 outlet;
#X obj 54 213 tgl 15 0 empty empty empty 17 7 0 10 -262144 -1 -1 1
1;
#X obj 21 234 spigot;
#X obj 102 213 tgl 15 0 empty empty empty 17 7 0 10 -262144 -1 -1 1
1;
#X obj 69 234 spigot;
#X obj 289 223 f;
#X obj 315 224 + 1;
#X floatatom 298 246 5 0 0 0 - - -, f 5;
#X obj 62 83 loadbang;
#X obj 298 266 sel 0;
#X obj 62 103 s \$0-codblang;
#X obj 297 183 r \$0-codblang;
#X obj 35 50 s \$0-inletbang;
#X obj 210 202 r \$0-inletbang;
#X obj 340 224 mod 200;
#X obj 315 203 random 200;
#X obj 214 58 f;
#X obj 240 59 + 1;
#X floatatom 223 81 5 0 0 0 - - -, f 5;
#X obj 223 101 sel 0;
#X obj 222 18 r \$0-codblang;
#X obj 135 37 r \$0-inletbang;
#X obj 269 68 mod 200;
#X obj 240 38 random 200;
#X obj 310 43 + 100;
#X obj 390 223 + 100;
#X floatatom 307 92 5 0 0 0 - - -, f 5;
#X floatatom 390 244 5 0 0 0 - - -, f 5;
#X obj 390 203 random 100;
#X obj 310 23 random 100;
#X obj 298 289 random 2;
#X obj 223 121 random 2;
#X connect 0 0 4 0;
#X connect 0 0 6 0;
#X connect 0 0 14 0;
#X connect 3 0 4 1;
#X connect 4 0 1 0;
#X connect 5 0 6 1;
#X connect 6 0 2 0;
#X connect 7 0 8 0;
#X connect 7 0 9 0;
#X connect 8 0 16 0;
#X connect 9 0 11 0;
#X connect 10 0 12 0;
#X connect 11 0 32 0;
#X connect 13 0 17 0;
#X connect 13 0 30 0;
#X connect 15 0 7 0;
#X connect 16 0 7 1;
#X connect 17 0 8 0;
#X connect 18 0 19 0;
#X connect 18 0 20 0;
#X connect 19 0 24 0;
#X connect 20 0 21 0;
#X connect 21 0 33 0;
#X connect 22 0 25 0;
#X connect 22 0 31 0;
#X connect 23 0 18 0;
#X connect 24 0 18 1;
#X connect 25 0 19 0;
#X connect 26 0 25 1;
#X connect 26 0 24 1;
#X connect 26 0 28 0;
#X connect 27 0 17 1;
#X connect 27 0 16 1;
#X connect 27 0 29 0;
#X connect 30 0 27 0;
#X connect 31 0 26 0;
#X connect 32 0 5 0;
#X connect 33 0 3 0;
#X restore 211 160 pd tablonoff;
#X obj 358 192 tablenge2_gen_engine;
#N canvas 0 50 472 326 tablonoff 0;
#X obj 21 25 inlet;
#X obj 21 271 outlet;
#X obj 69 271 outlet;
#X obj 54 213 tgl 15 0 empty empty empty 17 7 0 10 -262144 -1 -1 1
1;
#X obj 21 234 spigot;
#X obj 102 213 tgl 15 0 empty empty empty 17 7 0 10 -262144 -1 -1 1
1;
#X obj 69 234 spigot;
#X obj 289 223 f;
#X obj 315 224 + 1;
#X floatatom 298 246 5 0 0 0 - - -, f 5;
#X obj 62 83 loadbang;
#X obj 298 266 sel 0;
#X obj 62 103 s \$0-codblang;
#X obj 297 183 r \$0-codblang;
#X obj 35 50 s \$0-inletbang;
#X obj 210 202 r \$0-inletbang;
#X obj 340 224 mod 200;
#X obj 315 203 random 200;
#X obj 214 58 f;
#X obj 240 59 + 1;
#X floatatom 223 81 5 0 0 0 - - -, f 5;
#X obj 223 101 sel 0;
#X obj 222 18 r \$0-codblang;
#X obj 135 37 r \$0-inletbang;
#X obj 269 68 mod 200;
#X obj 240 38 random 200;
#X obj 310 43 + 100;
#X obj 390 223 + 100;
#X floatatom 307 92 5 0 0 0 - - -, f 5;
#X floatatom 390 244 5 0 0 0 - - -, f 5;
#X obj 390 203 random 100;
#X obj 310 23 random 100;
#X obj 298 289 random 2;
#X obj 223 121 random 2;
#X connect 0 0 4 0;
#X connect 0 0 6 0;
#X connect 0 0 14 0;
#X connect 3 0 4 1;
#X connect 4 0 1 0;
#X connect 5 0 6 1;
#X connect 6 0 2 0;
#X connect 7 0 8 0;
#X connect 7 0 9 0;
#X connect 8 0 16 0;
#X connect 9 0 11 0;
#X connect 10 0 12 0;
#X connect 11 0 32 0;
#X connect 13 0 17 0;
#X connect 13 0 30 0;
#X connect 15 0 7 0;
#X connect 16 0 7 1;
#X connect 17 0 8 0;
#X connect 18 0 19 0;
#X connect 18 0 20 0;
#X connect 19 0 24 0;
#X connect 20 0 21 0;
#X connect 21 0 33 0;
#X connect 22 0 25 0;
#X connect 22 0 31 0;
#X connect 23 0 18 0;
#X connect 24 0 18 1;
#X connect 25 0 19 0;
#X connect 26 0 25 1;
#X connect 26 0 24 1;
#X connect 26 0 28 0;
#X connect 27 0 17 1;
#X connect 27 0 16 1;
#X connect 27 0 29 0;
#X connect 30 0 27 0;
#X connect 31 0 26 0;
#X connect 32 0 5 0;
#X connect 33 0 3 0;
#X restore 358 169 pd tablonoff;
#N canvas 0 50 153 207 speedup 0;
#X obj 43 110 pow;
#X msg 43 90 2;
#X obj 17 71 random 3;
#X obj 17 51 sel 1;
#X obj 17 41 tgl 8 0 empty empty empty 17 7 0 10 -258113 -4032 -1 0
1;
#X obj 43 130 * 60;
#N canvas 672 186 315 344 workit 0;
#X obj 67 307 outlet;
#X floatatom 67 148 5 0 0 0 - - -, f 5;
#X obj 67 103 random 100;
#X obj 67 250 line;
#X obj 67 227 pack 0 10000;
#X obj 66 19 loadbang;
#X obj 67 127 * 0.2;
#X obj 134 102 random 2;
#X obj 135 124 sel 0 1;
#X msg 134 144 -1;
#X msg 162 145 1;
#X obj 67 195 *;
#X obj 66 81 metro 20000;
#X obj 154 54 + 10000;
#X obj 154 15 random 10000;
#X obj 154 35 * 2;
#X obj 67 274 + 60;
#X connect 1 0 11 0;
#X connect 2 0 6 0;
#X connect 3 0 16 0;
#X connect 4 0 3 0;
#X connect 5 0 12 0;
#X connect 6 0 1 0;
#X connect 7 0 8 0;
#X connect 8 0 9 0;
#X connect 8 1 10 0;
#X connect 9 0 11 1;
#X connect 10 0 11 1;
#X connect 11 0 4 0;
#X connect 12 0 2 0;
#X connect 12 0 7 0;
#X connect 12 0 14 0;
#X connect 13 0 12 1;
#X connect 14 0 15 0;
#X connect 15 0 13 0;
#X connect 16 0 0 0;
#X restore 77 103 pd workit;
#X floatatom 86 127 5 0 0 0 - - -, f 5;
#X obj 17 13 inlet;
#X obj 43 158 outlet;
#X connect 0 0 5 0;
#X connect 1 0 0 0;
#X connect 2 0 0 1;
#X connect 3 0 2 0;
#X connect 4 0 3 0;
#X connect 4 0 1 0;
#X connect 5 0 9 0;
#X connect 6 0 5 1;
#X connect 6 0 7 0;
#X connect 8 0 4 0;
#X restore 90 82 pd speedup;
#X obj 159 236 rev1~;
#X obj 172 212 clip 0 90;
#X obj 211 237 rev2~ 100 30 3000 75;
#X obj 159 293 *~;
#X obj 174 270 phasor~ 0.01;
#N canvas 180 50 1012 734 catscandle_redux 0;
#X obj 509 423 *~;
#X obj 40 424 *~;
#X obj 467 224 lop~ 1000;
#N canvas 0 50 330 395 catscradledelay__ 0;
#X obj 199 295 throw~ \$0-ftraet;
#X obj 85 372 throw~ \$0-ftraeth;
#X obj 17 17 r~ \$0-starters;
#X obj 16 38 delcat1;
#X obj 16 59 delcat1;
#X obj 16 81 delcat1;
#X obj 15 103 delcat1;
#X obj 14 125 delcat1;
#X obj 19 150 delcat1;
#X obj 24 172 delcat1;
#X obj 13 194 delcat1;
#X obj 13 218 delcat1;
#X obj 13 241 delcat1;
#X obj 14 269 delcat1;
#X obj 28 293 delcat1;
#X obj 36 314 delcat1;
#X obj 16 335 delcat1;
#X connect 2 0 3 0;
#X connect 3 0 1 0;
#X connect 3 0 0 0;
#X connect 3 0 4 0;
#X connect 3 0 6 0;
#X connect 4 0 1 0;
#X connect 4 0 0 0;
#X connect 4 0 5 0;
#X connect 4 0 6 0;
#X connect 5 0 1 0;
#X connect 5 0 0 0;
#X connect 5 0 6 0;
#X connect 6 0 0 0;
#X connect 6 0 1 0;
#X connect 6 0 7 0;
#X connect 7 0 8 0;
#X connect 7 0 10 0;
#X connect 8 0 9 0;
#X connect 8 0 10 0;
#X connect 9 0 1 0;
#X connect 9 0 10 0;
#X connect 10 0 0 0;
#X connect 10 0 11 0;
#X connect 11 0 12 0;
#X connect 12 0 0 0;
#X connect 12 0 13 0;
#X connect 13 0 14 0;
#X connect 13 0 16 0;
#X connect 14 0 15 0;
#X connect 14 0 16 0;
#X connect 15 0 16 0;
#X connect 16 0 1 0;
#X restore 27 135 pd catscradledelay__;
#X obj 467 205 delcat1;
#X obj 509 443 delcat1;
#X obj 7 400 delcat1;
#X obj 528 223 lop~ 1000;
#X obj 528 204 delcat1;
#X obj 43 504 *~;
#X obj 60 471 > 88;
#X obj 60 451 env~ 64;
#X obj 43 533 delcat1;
#X obj 55 382 osc~ 0.005;
#X obj 528 384 osc~ 0.003;
#X obj 55 403 clip~ 0 1;
#X obj 528 403 clip~ 0 1;
#X obj 20 105 s~ \$0-starters;
#X obj 291 25 inlet~;
#X obj 387 682 outlet~;
#X obj 453 683 outlet~;
#X obj 741 453 catch~ \$0-ftraeth;
#X obj 748 473 catch~ \$0-ftraet;
#X obj 114 106 s~ \$0-theactualclick;
#X obj 476 248 *~ 1;
#X obj 520 248 *~ 1;
#X obj 387 631 *~ 1;
#X obj 455 631 *~ 1;
#X obj 495 180 *~ 1;
#X connect 0 0 5 0;
#X connect 1 0 11 0;
#X connect 1 0 9 0;
#X connect 2 0 24 0;
#X connect 4 0 2 0;
#X connect 5 0 11 0;
#X connect 5 0 9 0;
#X connect 5 0 27 0;
#X connect 6 0 1 0;
#X connect 7 0 25 0;
#X connect 8 0 7 0;
#X connect 9 0 12 0;
#X connect 10 0 9 1;
#X connect 11 0 10 0;
#X connect 12 0 26 0;
#X connect 13 0 15 0;
#X connect 14 0 16 0;
#X connect 15 0 1 1;
#X connect 16 0 0 1;
#X connect 18 0 17 0;
#X connect 18 0 23 0;
#X connect 18 0 0 0;
#X connect 18 0 6 0;
#X connect 18 0 28 0;
#X connect 21 0 26 0;
#X connect 22 0 27 0;
#X connect 24 0 26 0;
#X connect 25 0 27 0;
#X connect 26 0 19 0;
#X connect 27 0 20 0;
#X connect 28 0 4 0;
#X connect 28 0 8 0;
#X restore 358 236 pd catscandle_redux;
#X obj 266 83 declare -path ./objects;
#X obj 269 211 random 100;
#N canvas 0 22 285 204 mastering 0;
#X obj 48 82 *~ 0.6;
#X obj 48 104 expr~ tanh($v1);
#X obj 162 83 *~ 0.6;
#X obj 162 105 expr~ tanh($v1);
#X obj 48 40 inlet~;
#X obj 161 38 inlet~;
#X obj 48 139 outlet~;
#X obj 162 137 outlet~;
#X connect 0 0 1 0;
#X connect 1 0 6 0;
#X connect 2 0 3 0;
#X connect 3 0 7 0;
#X connect 4 0 0 0;
#X connect 5 0 2 0;
#X restore 195 417 pd mastering;
#X connect 0 0 3 0;
#X connect 1 0 0 0;
#X connect 1 0 2 0;
#X connect 3 0 6 0;
#X connect 3 0 11 0;
#X connect 3 0 13 0;
#X connect 3 0 14 0;
#X connect 4 0 8 0;
#X connect 4 1 8 1;
#X connect 5 0 4 0;
#X connect 6 0 5 0;
#X connect 6 1 7 0;
#X connect 7 0 4 1;
#X connect 8 0 23 0;
#X connect 8 1 23 1;
#X connect 10 0 15 0;
#X connect 10 0 17 0;
#X connect 11 0 10 0;
#X connect 11 1 22 0;
#X connect 12 0 20 0;
#X connect 13 0 12 0;
#X connect 14 0 3 1;
#X connect 14 0 16 0;
#X connect 15 0 18 0;
#X connect 16 0 15 1;
#X connect 17 1 8 1;
#X connect 17 2 8 1;
#X connect 17 3 8 1;
#X connect 18 0 8 0;
#X connect 19 0 18 1;
#X connect 20 0 8 0;
#X connect 20 1 8 1;
#X connect 22 0 17 2;
#X connect 23 0 9 0;
#X connect 23 1 9 1;
