#N canvas 293 30 305 452 10;
#X declare -path ./objects;
#X obj 31 104 s \$0-bangeth;
#X obj 31 59 tgl 15 0 empty empty empty 17 7 0 10 -262144 -1 -1 1 1
;
#N canvas 0 50 821 444 bangsssss 0;
#X obj 31 73 throw~ \$0-saywhaaaat;
#X obj 9 53 throw~ \$0-nowaaaaaay;
#X obj 9 12 r \$0-bangeth;
#X obj 53 93 throw~ \$0-bedyinouthere;
#X obj 30 174 throw~ \$0-saywhaaaat;
#X obj 8 154 throw~ \$0-nowaaaaaay;
#X obj 8 113 r \$0-bangeth;
#X obj 52 194 throw~ \$0-bedyinouthere;
#X obj 230 71 throw~ \$0-saywhaaaat;
#X obj 208 51 throw~ \$0-nowaaaaaay;
#X obj 208 10 r \$0-bangeth;
#X obj 252 91 throw~ \$0-bedyinouthere;
#X obj 229 172 throw~ \$0-saywhaaaat;
#X obj 207 152 throw~ \$0-nowaaaaaay;
#X obj 207 111 r \$0-bangeth;
#X obj 251 192 throw~ \$0-bedyinouthere;
#X obj 423 70 throw~ \$0-saywhaaaat;
#X obj 401 50 throw~ \$0-nowaaaaaay;
#X obj 401 9 r \$0-bangeth;
#X obj 445 90 throw~ \$0-bedyinouthere;
#X obj 422 171 throw~ \$0-saywhaaaat;
#X obj 400 151 throw~ \$0-nowaaaaaay;
#X obj 400 110 r \$0-bangeth;
#X obj 444 191 throw~ \$0-bedyinouthere;
#X obj 622 68 throw~ \$0-saywhaaaat;
#X obj 600 48 throw~ \$0-nowaaaaaay;
#X obj 600 7 r \$0-bangeth;
#X obj 644 88 throw~ \$0-bedyinouthere;
#X obj 621 169 throw~ \$0-saywhaaaat;
#X obj 599 149 throw~ \$0-nowaaaaaay;
#X obj 599 108 r \$0-bangeth;
#X obj 643 189 throw~ \$0-bedyinouthere;
#X obj 38 284 throw~ \$0-saywhaaaat;
#X obj 16 264 throw~ \$0-nowaaaaaay;
#X obj 16 223 r \$0-bangeth;
#X obj 60 304 throw~ \$0-bedyinouthere;
#X obj 37 385 throw~ \$0-saywhaaaat;
#X obj 15 365 throw~ \$0-nowaaaaaay;
#X obj 15 324 r \$0-bangeth;
#X obj 59 405 throw~ \$0-bedyinouthere;
#X obj 237 282 throw~ \$0-saywhaaaat;
#X obj 215 262 throw~ \$0-nowaaaaaay;
#X obj 215 221 r \$0-bangeth;
#X obj 259 302 throw~ \$0-bedyinouthere;
#X obj 236 383 throw~ \$0-saywhaaaat;
#X obj 214 363 throw~ \$0-nowaaaaaay;
#X obj 214 322 r \$0-bangeth;
#X obj 258 403 throw~ \$0-bedyinouthere;
#X obj 430 281 throw~ \$0-saywhaaaat;
#X obj 408 261 throw~ \$0-nowaaaaaay;
#X obj 408 220 r \$0-bangeth;
#X obj 452 301 throw~ \$0-bedyinouthere;
#X obj 429 382 throw~ \$0-saywhaaaat;
#X obj 407 362 throw~ \$0-nowaaaaaay;
#X obj 407 321 r \$0-bangeth;
#X obj 451 402 throw~ \$0-bedyinouthere;
#X obj 629 279 throw~ \$0-saywhaaaat;
#X obj 607 259 throw~ \$0-nowaaaaaay;
#X obj 607 218 r \$0-bangeth;
#X obj 651 299 throw~ \$0-bedyinouthere;
#X obj 628 380 throw~ \$0-saywhaaaat;
#X obj 606 360 throw~ \$0-nowaaaaaay;
#X obj 606 319 r \$0-bangeth;
#X obj 650 400 throw~ \$0-bedyinouthere;
#X obj 9 33 bangable;
#X obj 16 244 bangable;
#X obj 8 134 bangable;
#X obj 208 31 bangable;
#X obj 207 132 bangable;
#X obj 401 30 bangable;
#X obj 400 131 bangable;
#X obj 600 28 bangable;
#X obj 599 129 bangable;
#X obj 15 345 bangable;
#X obj 215 242 bangable;
#X obj 214 343 bangable;
#X obj 408 241 bangable;
#X obj 407 342 bangable;
#X obj 607 239 bangable;
#X obj 606 340 bangable;
#X connect 2 0 64 0;
#X connect 6 0 66 0;
#X connect 10 0 67 0;
#X connect 14 0 68 0;
#X connect 18 0 69 0;
#X connect 22 0 70 0;
#X connect 26 0 71 0;
#X connect 30 0 72 0;
#X connect 34 0 65 0;
#X connect 38 0 73 0;
#X connect 42 0 74 0;
#X connect 46 0 75 0;
#X connect 50 0 76 0;
#X connect 54 0 77 0;
#X connect 58 0 78 0;
#X connect 62 0 79 0;
#X connect 64 0 1 0;
#X connect 64 1 0 0;
#X connect 64 2 3 0;
#X connect 65 0 33 0;
#X connect 65 1 32 0;
#X connect 65 2 35 0;
#X connect 66 0 5 0;
#X connect 66 1 4 0;
#X connect 66 2 7 0;
#X connect 67 0 9 0;
#X connect 67 1 8 0;
#X connect 67 2 11 0;
#X connect 68 0 13 0;
#X connect 68 1 12 0;
#X connect 68 2 15 0;
#X connect 69 0 17 0;
#X connect 69 1 16 0;
#X connect 69 2 19 0;
#X connect 70 0 21 0;
#X connect 70 1 20 0;
#X connect 70 2 23 0;
#X connect 71 0 25 0;
#X connect 71 1 24 0;
#X connect 71 2 27 0;
#X connect 72 0 29 0;
#X connect 72 1 28 0;
#X connect 72 2 31 0;
#X connect 73 0 37 0;
#X connect 73 1 36 0;
#X connect 73 2 39 0;
#X connect 74 0 41 0;
#X connect 74 1 40 0;
#X connect 74 2 43 0;
#X connect 75 0 45 0;
#X connect 75 1 44 0;
#X connect 75 2 47 0;
#X connect 76 0 49 0;
#X connect 76 1 48 0;
#X connect 76 2 51 0;
#X connect 77 0 53 0;
#X connect 77 1 52 0;
#X connect 77 2 55 0;
#X connect 78 0 57 0;
#X connect 78 1 56 0;
#X connect 78 2 59 0;
#X connect 79 0 61 0;
#X connect 79 1 60 0;
#X connect 79 2 63 0;
#X restore 31 126 pd bangsssss;
#N canvas 672 186 315 344 workit 0;
#X obj 67 307 outlet;
#X floatatom 67 148 5 0 0 0 - - -, f 5;
#X obj 67 103 random 100;
#X obj 67 250 line;
#X obj 67 274 + 100;
#X obj 67 227 pack 0 10000;
#X obj 66 19 loadbang;
#X obj 67 127 * 0.2;
#X obj 134 102 random 2;
#X obj 135 124 sel 0 1;
#X msg 135 147 -1;
#X msg 165 147 1;
#X obj 67 195 *;
#X obj 66 81 metro 20000;
#X obj 139 64 + 10000;
#X obj 139 25 random 10000;
#X obj 139 45 * 2;
#X connect 1 0 12 0;
#X connect 2 0 7 0;
#X connect 3 0 4 0;
#X connect 4 0 0 0;
#X connect 5 0 3 0;
#X connect 6 0 13 0;
#X connect 7 0 1 0;
#X connect 8 0 9 0;
#X connect 9 0 10 0;
#X connect 9 1 11 0;
#X connect 10 0 12 1;
#X connect 11 0 12 1;
#X connect 12 0 5 0;
#X connect 13 0 2 0;
#X connect 13 0 8 0;
#X connect 13 0 15 0;
#X connect 14 0 13 1;
#X connect 15 0 16 0;
#X connect 16 0 14 0;
#X restore 82 54 pd workit;
#X obj 31 79 metro 100;
#X obj 31 172 catch~ \$0-nowaaaaaay;
#X floatatom 248 128 5 0 0 0 - - -, f 5;
#X obj 31 29 loadbang;
#N canvas 0 50 177 156 revery 0;
#X obj 29 110 throw~ \$0-saywhaaaat;
#X obj 7 90 throw~ \$0-nowaaaaaay;
#X obj 6 13 catch~ \$0-bedyinouthere;
#X obj 6 36 rev2~ 99 1 20000 100;
#X connect 2 0 3 0;
#X connect 3 0 0 0;
#X connect 3 1 0 0;
#X connect 3 2 1 0;
#X connect 3 3 1 0;
#X restore 31 150 pd revery;
#X msg 152 46 \; pd dsp 1;
#X obj 100 359 thru~;
#X obj 100 419 dac~;
#N canvas 0 50 443 534 delaymatrix 0;
#X obj 338 40 s \$0-mstime;
#X obj 8 16 inlet~;
#X obj 60 16 inlet~;
#X obj 213 182 * 2;
#X obj 293 211 vddelay;
#X floatatom 298 43 5 0 0 0 - - -, f 5;
#X obj 304 18 inlet;
#X obj 264 262 * 2;
#X obj 56 203 cos~;
#X obj 95 336 cos~;
#X obj 210 350 phasor~;
#X obj 208 377 hip~ 300;
#X obj 160 64 r \$0-mstime;
#X obj 166 92 * 2;
#X obj 68 126 vddelay;
#X obj 232 133 vddelay;
#X obj 161 238 vddelay;
#X obj 188 285 vddelay;
#X obj 344 291 vddelay;
#X floatatom 301 374 5 0 0 0 - - -, f 5;
#X obj 328 323 *~ 0.5;
#X obj 189 313 *~;
#X obj 98 453 outlet~;
#X obj 190 452 outlet~;
#X obj 98 411 *~ 2;
#X obj 190 410 *~ 2;
#X connect 1 0 14 0;
#X connect 2 0 15 0;
#X connect 3 0 7 0;
#X connect 3 0 4 1;
#X connect 3 0 16 1;
#X connect 4 0 10 0;
#X connect 4 0 18 0;
#X connect 6 0 0 0;
#X connect 6 0 5 0;
#X connect 7 0 17 1;
#X connect 7 0 18 1;
#X connect 7 0 19 0;
#X connect 8 0 21 1;
#X connect 8 0 25 0;
#X connect 9 0 24 0;
#X connect 10 0 11 0;
#X connect 11 0 25 0;
#X connect 12 0 13 0;
#X connect 13 0 3 0;
#X connect 13 0 14 1;
#X connect 13 0 15 1;
#X connect 14 0 8 0;
#X connect 14 0 16 0;
#X connect 15 0 4 0;
#X connect 16 0 9 0;
#X connect 16 0 17 0;
#X connect 17 0 21 0;
#X connect 18 0 20 0;
#X connect 18 0 24 0;
#X connect 20 0 14 0;
#X connect 21 0 25 0;
#X connect 24 0 22 0;
#X connect 25 0 23 0;
#X restore 167 278 pd delaymatrix;
#X obj 161 172 catch~ \$0-saywhaaaat;
#N canvas 35 66 592 433 Hann-window 0;
#N canvas 0 50 450 300 (subpatch) 0;
#X array \$0-hann 512 float 0;
#X coords 0 1 511 0 200 120 1;
#X restore 293 249 graph;
#X msg 171 263 0;
#X obj 65 312 osc~;
#X obj 65 264 samplerate~;
#X obj 65 335 *~ -0.5;
#X obj 65 358 +~ 0.5;
#X obj 57 383 tabwrite~ \$0-hann;
#X text 279 241 1;
#X text 272 359 0;
#X text 288 372 0;
#X obj 65 288 / 512;
#X obj 57 241 bng 15 250 50 0 empty empty empty 0 -6 0 8 -262144 -1
-1;
#X text 336 221 Hann window;
#X text 113 310 period 512;
#X text 90 215 recalculate Hann;
#X text 125 230 window table;
#X obj 57 146 loadbang;
#X msg 79 179 \; pd dsp 1;
#X text 40 27 The Hann window is now recomputed on 'loadbang' to make
the file smaller (it doesn't have to be saved with the array.);
#X text 474 375 511;
#X connect 1 0 2 1;
#X connect 2 0 4 0;
#X connect 3 0 10 0;
#X connect 4 0 5 0;
#X connect 5 0 6 0;
#X connect 10 0 2 0;
#X connect 11 0 3 0;
#X connect 11 0 1 0;
#X connect 11 0 6 0;
#X connect 16 0 11 0;
#X connect 16 0 17 0;
#X restore 75 278 pd Hann-window;
#N canvas 684 203 631 441 fft 0;
#X obj 37 13 inlet~;
#X obj 313 19 inlet~;
#X obj 55 392 outlet~;
#X obj 436 408 outlet~;
#X msg 220 209 1;
#X obj 229 174 loadbang;
#X obj 53 55 *~;
#X obj 74 31 tabreceive~ \$0-hann;
#X obj 327 69 *~;
#X obj 348 45 tabreceive~ \$0-hann;
#X obj 69 359 *~;
#X obj 118 346 tabreceive~ \$0-hann;
#X obj 446 367 *~;
#X obj 499 357 tabreceive~ \$0-hann;
#X obj 97 312 *~;
#X obj 64 313 *~;
#X obj 65 79 rfft~;
#X obj 148 128 *~;
#X obj 64 336 rifft~;
#X obj 114 128 *~;
#X obj 114 151 +~;
#X obj 114 176 +~ 1e-20;
#X obj 417 328 *~;
#X obj 384 329 *~;
#X obj 385 95 rfft~;
#X obj 468 144 *~;
#X obj 384 352 rifft~;
#X obj 434 144 *~;
#X obj 434 167 +~;
#X obj 434 192 +~ 1e-20;
#X obj 433 230 rsqrt~;
#X obj 113 214 rsqrt~;
#X obj 220 230 block~ 512 4;
#X obj 434 297 clip~ 0 0.015;
#X obj 114 281 clip~ 0 0.015;
#X connect 0 0 6 0;
#X connect 1 0 8 0;
#X connect 4 0 32 0;
#X connect 5 0 4 0;
#X connect 6 0 16 0;
#X connect 7 0 6 1;
#X connect 8 0 24 0;
#X connect 9 0 8 1;
#X connect 10 0 2 0;
#X connect 11 0 10 1;
#X connect 12 0 3 0;
#X connect 13 0 12 1;
#X connect 14 0 18 1;
#X connect 15 0 18 0;
#X connect 16 0 19 0;
#X connect 16 0 19 1;
#X connect 16 0 15 0;
#X connect 16 1 17 0;
#X connect 16 1 17 1;
#X connect 16 1 14 0;
#X connect 17 0 20 1;
#X connect 18 0 10 0;
#X connect 19 0 20 0;
#X connect 20 0 21 0;
#X connect 21 0 31 0;
#X connect 22 0 26 1;
#X connect 23 0 26 0;
#X connect 24 0 27 0;
#X connect 24 0 27 1;
#X connect 24 0 23 0;
#X connect 24 1 25 0;
#X connect 24 1 25 1;
#X connect 24 1 22 0;
#X connect 25 0 28 1;
#X connect 26 0 12 0;
#X connect 27 0 28 0;
#X connect 28 0 29 0;
#X connect 29 0 30 0;
#X connect 30 0 33 0;
#X connect 31 0 34 0;
#X connect 33 0 23 1;
#X connect 33 0 22 1;
#X connect 34 0 15 1;
#X connect 34 0 14 1;
#X restore 31 278 pd fft;
#X obj 143 150 declare -path ./objects;
#N canvas 0 22 355 237 mastering 0;
#X obj 83 123 expr~ tanh($v1);
#X obj 202 122 expr~ tanh($v1);
#X obj 202 147 hip~ 33;
#X obj 83 152 hip~ 33;
#X obj 84 7 inlet~;
#X obj 201 9 inlet~;
#X obj 83 179 outlet~;
#X obj 202 175 outlet~;
#X obj 266 50 vcf~ 10;
#X obj 9 52 vcf~ 10;
#X obj 28 31 sig~ 444;
#X obj 284 29 sig~ 333;
#X obj 84 73 lop~ 8000;
#X obj 201 76 lop~ 8000;
#X obj 84 101 *~ 0.02;
#X obj 202 98 *~ 0.02;
#X connect 0 0 3 0;
#X connect 1 0 2 0;
#X connect 2 0 7 0;
#X connect 3 0 6 0;
#X connect 4 0 9 0;
#X connect 4 0 12 0;
#X connect 5 0 8 0;
#X connect 5 0 13 0;
#X connect 8 0 15 0;
#X connect 9 0 14 0;
#X connect 10 0 9 1;
#X connect 11 0 8 1;
#X connect 12 0 14 0;
#X connect 13 0 15 0;
#X connect 14 0 0 0;
#X connect 15 0 1 0;
#X restore 100 391 pd mastering;
#X obj 169 341 r \$0-bangeth;
#N canvas 628 68 150 236 the_kickk 0;
#X obj 19 201 outlet~;
#X obj 24 9 inlet;
#X obj 19 157 *~;
#X obj 82 91 bang;
#X obj 82 29 + 1;
#X obj 25 30 float;
#X obj 82 50 % 4;
#X obj 82 70 sel 0;
#X obj 19 135 osc~ 90;
#X obj 82 140 vline~;
#X msg 82 112 1 \, 0 100;
#X obj 19 178 *~ 5;
#X connect 1 0 5 0;
#X connect 2 0 11 0;
#X connect 3 0 10 0;
#X connect 4 0 5 1;
#X connect 4 0 6 0;
#X connect 5 0 4 0;
#X connect 6 0 7 0;
#X connect 7 0 3 0;
#X connect 8 0 2 0;
#X connect 9 0 2 1;
#X connect 10 0 9 0;
#X connect 11 0 0 0;
#X restore 169 364 pd the_kickk;
#X connect 1 0 4 0;
#X connect 3 0 4 1;
#X connect 3 0 6 0;
#X connect 4 0 0 0;
#X connect 5 0 12 0;
#X connect 5 0 15 0;
#X connect 6 0 12 2;
#X connect 7 0 1 0;
#X connect 7 0 9 0;
#X connect 10 0 17 0;
#X connect 10 1 17 1;
#X connect 12 0 10 0;
#X connect 12 1 10 1;
#X connect 13 0 12 1;
#X connect 13 0 15 1;
#X connect 15 0 10 0;
#X connect 15 1 10 1;
#X connect 17 0 11 0;
#X connect 17 1 11 1;
#X connect 18 0 19 0;
#X connect 19 0 17 0;
#X connect 19 0 17 1;
