#N canvas 566 147 603 530 10;
#X declare -path ./objects;
#X declare -path ./samples;
#X obj 100 6 loadbang;
#X obj 270 486 dac~;
#X obj 253 122 metro 100;
#X obj 253 144 random 20;
#X obj 253 164 sel 0;
#X msg 253 97 1;
#X obj 222 290 *~;
#X obj 100 92 readsf~;
#X obj 237 226 pack 0 0;
#X obj 236 206 * 0.01;
#X obj 236 186 random 100;
#X obj 303 186 random 500;
#N canvas 180 50 1012 734 catscandle_redux 0;
#X obj 509 423 *~;
#X obj 40 424 *~;
#X obj 467 224 lop~ 1000;
#N canvas 0 50 330 395 catscradledelay__ 0;
#X obj 199 295 throw~ \$0-ftraet;
#X obj 85 372 throw~ \$0-ftraeth;
#X obj 17 17 r~ \$0-starters;
#X obj 16 38 delcat1;
#X obj 16 59 delcat1;
#X obj 16 81 delcat1;
#X obj 15 103 delcat1;
#X obj 14 125 delcat1;
#X obj 19 150 delcat1;
#X obj 24 172 delcat1;
#X obj 13 194 delcat1;
#X obj 13 218 delcat1;
#X obj 13 241 delcat1;
#X obj 14 269 delcat1;
#X obj 28 293 delcat1;
#X obj 36 314 delcat1;
#X obj 16 335 delcat1;
#X connect 2 0 3 0;
#X connect 3 0 1 0;
#X connect 3 0 0 0;
#X connect 3 0 4 0;
#X connect 3 0 6 0;
#X connect 4 0 1 0;
#X connect 4 0 0 0;
#X connect 4 0 5 0;
#X connect 4 0 6 0;
#X connect 5 0 1 0;
#X connect 5 0 0 0;
#X connect 5 0 6 0;
#X connect 6 0 0 0;
#X connect 6 0 1 0;
#X connect 6 0 7 0;
#X connect 7 0 8 0;
#X connect 7 0 10 0;
#X connect 8 0 9 0;
#X connect 8 0 10 0;
#X connect 9 0 1 0;
#X connect 9 0 10 0;
#X connect 10 0 0 0;
#X connect 10 0 11 0;
#X connect 11 0 12 0;
#X connect 12 0 0 0;
#X connect 12 0 13 0;
#X connect 13 0 14 0;
#X connect 13 0 16 0;
#X connect 14 0 15 0;
#X connect 14 0 16 0;
#X connect 15 0 16 0;
#X connect 16 0 1 0;
#X restore 27 135 pd catscradledelay__;
#X obj 528 223 lop~ 1000;
#X obj 43 504 *~;
#X obj 60 471 > 88;
#X obj 60 451 env~ 64;
#X obj 55 382 osc~ 0.005;
#X obj 528 384 osc~ 0.003;
#X obj 55 403 clip~ 0 1;
#X obj 528 403 clip~ 0 1;
#X obj 20 105 s~ \$0-starters;
#X obj 291 25 inlet~;
#X obj 387 682 outlet~;
#X obj 453 683 outlet~;
#X obj 741 453 catch~ \$0-ftraeth;
#X obj 748 473 catch~ \$0-ftraet;
#X obj 114 106 s~ \$0-theactualclick;
#X obj 476 248 *~ 1;
#X obj 520 248 *~ 1;
#X obj 387 631 *~ 1;
#X obj 455 631 *~ 1;
#X obj 495 180 *~ 1;
#X obj 467 205 delcat1;
#X obj 509 443 delcat1;
#X obj 7 400 delcat1;
#X obj 528 204 delcat1;
#X obj 43 533 delcat1;
#X connect 0 0 25 0;
#X connect 1 0 7 0;
#X connect 1 0 5 0;
#X connect 2 0 19 0;
#X connect 4 0 20 0;
#X connect 5 0 28 0;
#X connect 6 0 5 1;
#X connect 7 0 6 0;
#X connect 8 0 10 0;
#X connect 9 0 11 0;
#X connect 10 0 1 1;
#X connect 11 0 0 1;
#X connect 13 0 12 0;
#X connect 13 0 18 0;
#X connect 13 0 0 0;
#X connect 13 0 23 0;
#X connect 13 0 26 0;
#X connect 16 0 21 0;
#X connect 17 0 22 0;
#X connect 19 0 21 0;
#X connect 20 0 22 0;
#X connect 21 0 14 0;
#X connect 22 0 15 0;
#X connect 23 0 24 0;
#X connect 23 0 27 0;
#X connect 24 0 2 0;
#X connect 25 0 7 0;
#X connect 25 0 5 0;
#X connect 25 0 22 0;
#X connect 26 0 1 0;
#X connect 27 0 4 0;
#X connect 28 0 21 0;
#X restore 222 316 pd catscandle_redux;
#N canvas 684 203 631 441 fft 0;
#X obj 37 13 inlet~;
#X obj 313 19 inlet~;
#X obj 55 392 outlet~;
#X obj 436 408 outlet~;
#X msg 220 209 1;
#X obj 229 174 loadbang;
#X obj 53 55 *~;
#X obj 74 31 tabreceive~ \$0-hann;
#X obj 327 69 *~;
#X obj 348 45 tabreceive~ \$0-hann;
#X obj 69 359 *~;
#X obj 118 346 tabreceive~ \$0-hann;
#X obj 446 367 *~;
#X obj 499 357 tabreceive~ \$0-hann;
#X obj 97 312 *~;
#X obj 64 313 *~;
#X obj 65 79 rfft~;
#X obj 148 128 *~;
#X obj 64 336 rifft~;
#X obj 114 128 *~;
#X obj 114 151 +~;
#X obj 114 176 +~ 1e-20;
#X obj 417 328 *~;
#X obj 384 329 *~;
#X obj 385 95 rfft~;
#X obj 468 144 *~;
#X obj 384 352 rifft~;
#X obj 434 144 *~;
#X obj 434 167 +~;
#X obj 434 192 +~ 1e-20;
#X obj 433 230 rsqrt~;
#X obj 113 214 rsqrt~;
#X obj 220 230 block~ 512 4;
#X obj 114 281 clip~ 0 0.01;
#X obj 434 297 clip~ 0 0.01;
#X connect 0 0 6 0;
#X connect 1 0 8 0;
#X connect 4 0 32 0;
#X connect 5 0 4 0;
#X connect 6 0 16 0;
#X connect 7 0 6 1;
#X connect 8 0 24 0;
#X connect 9 0 8 1;
#X connect 10 0 2 0;
#X connect 11 0 10 1;
#X connect 12 0 3 0;
#X connect 13 0 12 1;
#X connect 14 0 18 1;
#X connect 15 0 18 0;
#X connect 16 0 19 0;
#X connect 16 0 19 1;
#X connect 16 0 15 0;
#X connect 16 1 17 0;
#X connect 16 1 17 1;
#X connect 16 1 14 0;
#X connect 17 0 20 1;
#X connect 18 0 10 0;
#X connect 19 0 20 0;
#X connect 20 0 21 0;
#X connect 21 0 31 0;
#X connect 22 0 26 1;
#X connect 23 0 26 0;
#X connect 24 0 27 0;
#X connect 24 0 27 1;
#X connect 24 0 23 0;
#X connect 24 1 25 0;
#X connect 24 1 25 1;
#X connect 24 1 22 0;
#X connect 25 0 28 1;
#X connect 26 0 12 0;
#X connect 27 0 28 0;
#X connect 28 0 29 0;
#X connect 29 0 30 0;
#X connect 30 0 34 0;
#X connect 31 0 33 0;
#X connect 33 0 15 1;
#X connect 33 0 14 1;
#X connect 34 0 23 1;
#X connect 34 0 22 1;
#X restore 260 346 pd fft;
#N canvas 35 66 592 433 Hann-window 0;
#N canvas 0 50 450 300 (subpatch) 0;
#X array \$0-hann 512 float 0;
#X coords 0 1 511 0 200 120 1;
#X restore 293 249 graph;
#X msg 171 263 0;
#X obj 65 312 osc~;
#X obj 65 264 samplerate~;
#X obj 65 335 *~ -0.5;
#X obj 65 358 +~ 0.5;
#X obj 57 383 tabwrite~ \$0-hann;
#X text 279 241 1;
#X text 272 359 0;
#X text 288 372 0;
#X obj 65 288 / 512;
#X obj 57 241 bng 15 250 50 0 empty empty empty 0 -6 0 8 -262144 -1
-1;
#X text 336 221 Hann window;
#X text 113 310 period 512;
#X text 90 215 recalculate Hann;
#X text 125 230 window table;
#X obj 57 146 loadbang;
#X text 40 27 The Hann window is now recomputed on 'loadbang' to make
the file smaller (it doesn't have to be saved with the array.);
#X text 474 375 511;
#X connect 1 0 2 1;
#X connect 2 0 4 0;
#X connect 3 0 10 0;
#X connect 4 0 5 0;
#X connect 5 0 6 0;
#X connect 10 0 2 0;
#X connect 11 0 3 0;
#X connect 11 0 1 0;
#X connect 11 0 6 0;
#X connect 16 0 11 0;
#X restore 9 333 pd Hann-window;
#X obj 237 268 vline~;
#X msg 237 247 \$1 10 \, 0 \$1 \$2;
#X msg 274 23 \; pd dsp 1;
#X obj 9 373 declare -path ./objects;
#X obj 9 353 declare -path ./samples;
#X msg 100 65 open ./samples/guitar.wav \, start;
#X obj 223 430 expr~ tanh($v1);
#X obj 338 427 expr~ tanh($v1);
#X obj 223 408 *~ 0.85;
#X obj 338 406 *~ 0.85;
#X connect 0 0 5 0;
#X connect 0 0 20 0;
#X connect 0 0 17 0;
#X connect 2 0 3 0;
#X connect 3 0 4 0;
#X connect 4 0 10 0;
#X connect 4 0 11 0;
#X connect 5 0 2 0;
#X connect 6 0 12 0;
#X connect 7 0 6 0;
#X connect 7 1 20 0;
#X connect 8 0 16 0;
#X connect 9 0 8 0;
#X connect 10 0 9 0;
#X connect 11 0 8 1;
#X connect 12 0 13 0;
#X connect 12 1 13 1;
#X connect 13 0 23 0;
#X connect 13 1 24 0;
#X connect 15 0 6 1;
#X connect 16 0 15 0;
#X connect 20 0 7 0;
#X connect 21 0 1 0;
#X connect 22 0 1 1;
#X connect 23 0 21 0;
#X connect 24 0 22 0;
